%FSLAX45Y45*%
G04 Gerber Fmt 4.5, Leading zero omitted, Abs format (unit mm)*
G04 Created by KiCad (PCBNEW (6.0.5)) date 2022-09-22 00:28:23*
%MOMM*%
%LPD*%
G01*
G04 APERTURE LIST*
%TA.AperFunction,Profile*%
%ADD10C,0.203200*%
%TD*%
%ADD11C,0.200000*%
%ADD12C,0.060000*%
%ADD13C,0.065000*%
G04 APERTURE END LIST*
D10*
X401320Y508000D02*
G75*
G03*
X401320Y-508000I0J-508000D01*
G01*
X2516590Y238762D02*
G75*
G03*
X2069546Y508000I-447010J-236462D01*
G01*
X2516586Y238760D02*
X2516586Y-243840D01*
X401320Y-508000D02*
X2069546Y-508000D01*
X401320Y508000D02*
X2069546Y508000D01*
X2069546Y-507996D02*
G75*
G03*
X2516586Y-243840I54J510256D01*
G01*
D11*
D12*
X2377920Y123800D02*
X2437920Y63800D01*
X2437920Y123800D02*
X2377920Y63800D01*
X2377920Y-46200D02*
X2437920Y-106200D01*
X2437920Y-46200D02*
X2377920Y-106200D01*
D13*
X567320Y289000D02*
G75*
G03*
X567320Y289000I-32500J0D01*
G01*
X567320Y-289000D02*
G75*
G03*
X567320Y-289000I-32500J0D01*
G01*
D11*
X140779Y-828636D02*
X140779Y-628636D01*
X188398Y-628636D01*
X216969Y-638160D01*
X236017Y-657208D01*
X245541Y-676255D01*
X255065Y-714350D01*
X255065Y-742922D01*
X245541Y-781017D01*
X236017Y-800065D01*
X216969Y-819112D01*
X188398Y-828636D01*
X140779Y-828636D01*
X340779Y-828636D02*
X340779Y-695303D01*
X340779Y-733398D02*
X350303Y-714350D01*
X359827Y-704827D01*
X378874Y-695303D01*
X397922Y-695303D01*
X464588Y-828636D02*
X464588Y-695303D01*
X464588Y-628636D02*
X455065Y-638160D01*
X464588Y-647684D01*
X474112Y-638160D01*
X464588Y-628636D01*
X464588Y-647684D01*
X588398Y-828636D02*
X569350Y-819112D01*
X559827Y-800065D01*
X559827Y-628636D01*
X693160Y-828636D02*
X674112Y-819112D01*
X664589Y-800065D01*
X664589Y-628636D01*
X921731Y-828636D02*
X921731Y-628636D01*
X988398Y-771493D01*
X1055065Y-628636D01*
X1055065Y-828636D01*
X1236017Y-828636D02*
X1236017Y-723874D01*
X1226493Y-704827D01*
X1207446Y-695303D01*
X1169350Y-695303D01*
X1150303Y-704827D01*
X1236017Y-819112D02*
X1216970Y-828636D01*
X1169350Y-828636D01*
X1150303Y-819112D01*
X1140779Y-800065D01*
X1140779Y-781017D01*
X1150303Y-761969D01*
X1169350Y-752446D01*
X1216970Y-752446D01*
X1236017Y-742922D01*
X1331255Y-695303D02*
X1331255Y-895303D01*
X1331255Y-704827D02*
X1350303Y-695303D01*
X1388398Y-695303D01*
X1407446Y-704827D01*
X1416969Y-714350D01*
X1426493Y-733398D01*
X1426493Y-790541D01*
X1416969Y-809588D01*
X1407446Y-819112D01*
X1388398Y-828636D01*
X1350303Y-828636D01*
X1331255Y-819112D01*
X1512208Y-809588D02*
X1521731Y-819112D01*
X1512208Y-828636D01*
X1502684Y-819112D01*
X1512208Y-809588D01*
X1512208Y-828636D01*
X1512208Y-704827D02*
X1521731Y-714350D01*
X1512208Y-723874D01*
X1502684Y-714350D01*
X1512208Y-704827D01*
X1512208Y-723874D01*
D12*
X-176840Y-1128160D02*
X-116840Y-1188160D01*
X-116840Y-1128160D02*
X-176840Y-1188160D01*
D11*
X178874Y-1048636D02*
X197922Y-1048636D01*
X216969Y-1058160D01*
X226493Y-1067684D01*
X236017Y-1086731D01*
X245541Y-1124827D01*
X245541Y-1172446D01*
X236017Y-1210541D01*
X226493Y-1229589D01*
X216969Y-1239112D01*
X197922Y-1248636D01*
X178874Y-1248636D01*
X159827Y-1239112D01*
X150303Y-1229589D01*
X140779Y-1210541D01*
X131255Y-1172446D01*
X131255Y-1124827D01*
X140779Y-1086731D01*
X150303Y-1067684D01*
X159827Y-1058160D01*
X178874Y-1048636D01*
X331255Y-1229589D02*
X340779Y-1239112D01*
X331255Y-1248636D01*
X321731Y-1239112D01*
X331255Y-1229589D01*
X331255Y-1248636D01*
X512208Y-1048636D02*
X474112Y-1048636D01*
X455065Y-1058160D01*
X445541Y-1067684D01*
X426493Y-1096255D01*
X416969Y-1134350D01*
X416969Y-1210541D01*
X426493Y-1229589D01*
X436017Y-1239112D01*
X455065Y-1248636D01*
X493160Y-1248636D01*
X512208Y-1239112D01*
X521731Y-1229589D01*
X531255Y-1210541D01*
X531255Y-1162922D01*
X521731Y-1143874D01*
X512208Y-1134350D01*
X493160Y-1124827D01*
X455065Y-1124827D01*
X436017Y-1134350D01*
X426493Y-1143874D01*
X416969Y-1162922D01*
X655065Y-1048636D02*
X674112Y-1048636D01*
X693160Y-1058160D01*
X702684Y-1067684D01*
X712208Y-1086731D01*
X721731Y-1124827D01*
X721731Y-1172446D01*
X712208Y-1210541D01*
X702684Y-1229589D01*
X693160Y-1239112D01*
X674112Y-1248636D01*
X655065Y-1248636D01*
X636017Y-1239112D01*
X626493Y-1229589D01*
X616970Y-1210541D01*
X607446Y-1172446D01*
X607446Y-1124827D01*
X616970Y-1086731D01*
X626493Y-1067684D01*
X636017Y-1058160D01*
X655065Y-1048636D01*
X845541Y-1048636D02*
X864588Y-1048636D01*
X883636Y-1058160D01*
X893160Y-1067684D01*
X902684Y-1086731D01*
X912208Y-1124827D01*
X912208Y-1172446D01*
X902684Y-1210541D01*
X893160Y-1229589D01*
X883636Y-1239112D01*
X864588Y-1248636D01*
X845541Y-1248636D01*
X826493Y-1239112D01*
X816969Y-1229589D01*
X807446Y-1210541D01*
X797922Y-1172446D01*
X797922Y-1124827D01*
X807446Y-1086731D01*
X816969Y-1067684D01*
X826493Y-1058160D01*
X845541Y-1048636D01*
X997922Y-1248636D02*
X997922Y-1115303D01*
X997922Y-1134350D02*
X1007446Y-1124827D01*
X1026493Y-1115303D01*
X1055065Y-1115303D01*
X1074112Y-1124827D01*
X1083636Y-1143874D01*
X1083636Y-1248636D01*
X1083636Y-1143874D02*
X1093160Y-1124827D01*
X1112208Y-1115303D01*
X1140779Y-1115303D01*
X1159827Y-1124827D01*
X1169350Y-1143874D01*
X1169350Y-1248636D01*
X1264589Y-1248636D02*
X1264589Y-1115303D01*
X1264589Y-1134350D02*
X1274112Y-1124827D01*
X1293160Y-1115303D01*
X1321731Y-1115303D01*
X1340779Y-1124827D01*
X1350303Y-1143874D01*
X1350303Y-1248636D01*
X1350303Y-1143874D02*
X1359827Y-1124827D01*
X1378874Y-1115303D01*
X1407446Y-1115303D01*
X1426493Y-1124827D01*
X1436017Y-1143874D01*
X1436017Y-1248636D01*
X1826493Y-1039112D02*
X1655065Y-1296255D01*
X2083636Y-1048636D02*
X2102684Y-1048636D01*
X2121731Y-1058160D01*
X2131255Y-1067684D01*
X2140779Y-1086731D01*
X2150303Y-1124827D01*
X2150303Y-1172446D01*
X2140779Y-1210541D01*
X2131255Y-1229589D01*
X2121731Y-1239112D01*
X2102684Y-1248636D01*
X2083636Y-1248636D01*
X2064588Y-1239112D01*
X2055065Y-1229589D01*
X2045541Y-1210541D01*
X2036017Y-1172446D01*
X2036017Y-1124827D01*
X2045541Y-1086731D01*
X2055065Y-1067684D01*
X2064588Y-1058160D01*
X2083636Y-1048636D01*
X2236017Y-1229589D02*
X2245541Y-1239112D01*
X2236017Y-1248636D01*
X2226493Y-1239112D01*
X2236017Y-1229589D01*
X2236017Y-1248636D01*
X2369350Y-1048636D02*
X2388398Y-1048636D01*
X2407446Y-1058160D01*
X2416970Y-1067684D01*
X2426493Y-1086731D01*
X2436017Y-1124827D01*
X2436017Y-1172446D01*
X2426493Y-1210541D01*
X2416970Y-1229589D01*
X2407446Y-1239112D01*
X2388398Y-1248636D01*
X2369350Y-1248636D01*
X2350303Y-1239112D01*
X2340779Y-1229589D01*
X2331255Y-1210541D01*
X2321731Y-1172446D01*
X2321731Y-1124827D01*
X2331255Y-1086731D01*
X2340779Y-1067684D01*
X2350303Y-1058160D01*
X2369350Y-1048636D01*
X2512208Y-1067684D02*
X2521731Y-1058160D01*
X2540779Y-1048636D01*
X2588398Y-1048636D01*
X2607446Y-1058160D01*
X2616970Y-1067684D01*
X2626493Y-1086731D01*
X2626493Y-1105779D01*
X2616970Y-1134350D01*
X2502684Y-1248636D01*
X2626493Y-1248636D01*
X2693160Y-1048636D02*
X2816969Y-1048636D01*
X2750303Y-1124827D01*
X2778874Y-1124827D01*
X2797922Y-1134350D01*
X2807446Y-1143874D01*
X2816969Y-1162922D01*
X2816969Y-1210541D01*
X2807446Y-1229589D01*
X2797922Y-1239112D01*
X2778874Y-1248636D01*
X2721731Y-1248636D01*
X2702684Y-1239112D01*
X2693160Y-1229589D01*
X2988398Y-1048636D02*
X2950303Y-1048636D01*
X2931255Y-1058160D01*
X2921731Y-1067684D01*
X2902684Y-1096255D01*
X2893160Y-1134350D01*
X2893160Y-1210541D01*
X2902684Y-1229589D01*
X2912208Y-1239112D01*
X2931255Y-1248636D01*
X2969350Y-1248636D01*
X2988398Y-1239112D01*
X2997922Y-1229589D01*
X3007446Y-1210541D01*
X3007446Y-1162922D01*
X2997922Y-1143874D01*
X2988398Y-1134350D01*
X2969350Y-1124827D01*
X2931255Y-1124827D01*
X2912208Y-1134350D01*
X2902684Y-1143874D01*
X2893160Y-1162922D01*
X3083636Y-1048636D02*
X3083636Y-1086731D01*
X3159827Y-1048636D02*
X3159827Y-1086731D01*
X3455065Y-1324827D02*
X3445541Y-1315303D01*
X3426493Y-1286731D01*
X3416969Y-1267684D01*
X3407446Y-1239112D01*
X3397922Y-1191493D01*
X3397922Y-1153398D01*
X3407446Y-1105779D01*
X3416969Y-1077208D01*
X3426493Y-1058160D01*
X3445541Y-1029588D01*
X3455065Y-1020065D01*
X3521731Y-1067684D02*
X3531255Y-1058160D01*
X3550303Y-1048636D01*
X3597922Y-1048636D01*
X3616969Y-1058160D01*
X3626493Y-1067684D01*
X3636017Y-1086731D01*
X3636017Y-1105779D01*
X3626493Y-1134350D01*
X3512208Y-1248636D01*
X3636017Y-1248636D01*
X3874112Y-1248636D02*
X3874112Y-1048636D01*
X3959827Y-1248636D02*
X3959827Y-1143874D01*
X3950303Y-1124827D01*
X3931255Y-1115303D01*
X3902684Y-1115303D01*
X3883636Y-1124827D01*
X3874112Y-1134350D01*
X4083636Y-1248636D02*
X4064588Y-1239112D01*
X4055065Y-1229589D01*
X4045541Y-1210541D01*
X4045541Y-1153398D01*
X4055065Y-1134350D01*
X4064588Y-1124827D01*
X4083636Y-1115303D01*
X4112208Y-1115303D01*
X4131255Y-1124827D01*
X4140779Y-1134350D01*
X4150303Y-1153398D01*
X4150303Y-1210541D01*
X4140779Y-1229589D01*
X4131255Y-1239112D01*
X4112208Y-1248636D01*
X4083636Y-1248636D01*
X4264589Y-1248636D02*
X4245541Y-1239112D01*
X4236017Y-1220065D01*
X4236017Y-1048636D01*
X4416970Y-1239112D02*
X4397922Y-1248636D01*
X4359827Y-1248636D01*
X4340779Y-1239112D01*
X4331255Y-1220065D01*
X4331255Y-1143874D01*
X4340779Y-1124827D01*
X4359827Y-1115303D01*
X4397922Y-1115303D01*
X4416970Y-1124827D01*
X4426493Y-1143874D01*
X4426493Y-1162922D01*
X4331255Y-1181970D01*
X4502684Y-1239112D02*
X4521731Y-1248636D01*
X4559827Y-1248636D01*
X4578874Y-1239112D01*
X4588398Y-1220065D01*
X4588398Y-1210541D01*
X4578874Y-1191493D01*
X4559827Y-1181970D01*
X4531255Y-1181970D01*
X4512208Y-1172446D01*
X4502684Y-1153398D01*
X4502684Y-1143874D01*
X4512208Y-1124827D01*
X4531255Y-1115303D01*
X4559827Y-1115303D01*
X4578874Y-1124827D01*
X4655065Y-1324827D02*
X4664589Y-1315303D01*
X4683636Y-1286731D01*
X4693160Y-1267684D01*
X4702684Y-1239112D01*
X4712208Y-1191493D01*
X4712208Y-1153398D01*
X4702684Y-1105779D01*
X4693160Y-1077208D01*
X4683636Y-1058160D01*
X4664589Y-1029588D01*
X4655065Y-1020065D01*
X5016970Y-1324827D02*
X5007446Y-1315303D01*
X4988398Y-1286731D01*
X4978874Y-1267684D01*
X4969350Y-1239112D01*
X4959827Y-1191493D01*
X4959827Y-1153398D01*
X4969350Y-1105779D01*
X4978874Y-1077208D01*
X4988398Y-1058160D01*
X5007446Y-1029588D01*
X5016970Y-1020065D01*
X5093160Y-1115303D02*
X5093160Y-1248636D01*
X5093160Y-1134350D02*
X5102684Y-1124827D01*
X5121731Y-1115303D01*
X5150303Y-1115303D01*
X5169350Y-1124827D01*
X5178874Y-1143874D01*
X5178874Y-1248636D01*
X5302684Y-1248636D02*
X5283636Y-1239112D01*
X5274112Y-1229589D01*
X5264589Y-1210541D01*
X5264589Y-1153398D01*
X5274112Y-1134350D01*
X5283636Y-1124827D01*
X5302684Y-1115303D01*
X5331255Y-1115303D01*
X5350303Y-1124827D01*
X5359827Y-1134350D01*
X5369350Y-1153398D01*
X5369350Y-1210541D01*
X5359827Y-1229589D01*
X5350303Y-1239112D01*
X5331255Y-1248636D01*
X5302684Y-1248636D01*
X5426493Y-1115303D02*
X5502684Y-1115303D01*
X5455065Y-1048636D02*
X5455065Y-1220065D01*
X5464589Y-1239112D01*
X5483636Y-1248636D01*
X5502684Y-1248636D01*
X5721731Y-1115303D02*
X5721731Y-1315303D01*
X5721731Y-1124827D02*
X5740779Y-1115303D01*
X5778874Y-1115303D01*
X5797922Y-1124827D01*
X5807446Y-1134350D01*
X5816969Y-1153398D01*
X5816969Y-1210541D01*
X5807446Y-1229589D01*
X5797922Y-1239112D01*
X5778874Y-1248636D01*
X5740779Y-1248636D01*
X5721731Y-1239112D01*
X5931255Y-1248636D02*
X5912208Y-1239112D01*
X5902684Y-1220065D01*
X5902684Y-1048636D01*
X6093160Y-1248636D02*
X6093160Y-1143874D01*
X6083636Y-1124827D01*
X6064588Y-1115303D01*
X6026493Y-1115303D01*
X6007446Y-1124827D01*
X6093160Y-1239112D02*
X6074112Y-1248636D01*
X6026493Y-1248636D01*
X6007446Y-1239112D01*
X5997922Y-1220065D01*
X5997922Y-1201017D01*
X6007446Y-1181970D01*
X6026493Y-1172446D01*
X6074112Y-1172446D01*
X6093160Y-1162922D01*
X6159827Y-1115303D02*
X6236017Y-1115303D01*
X6188398Y-1048636D02*
X6188398Y-1220065D01*
X6197922Y-1239112D01*
X6216969Y-1248636D01*
X6236017Y-1248636D01*
X6378874Y-1239112D02*
X6359827Y-1248636D01*
X6321731Y-1248636D01*
X6302684Y-1239112D01*
X6293160Y-1220065D01*
X6293160Y-1143874D01*
X6302684Y-1124827D01*
X6321731Y-1115303D01*
X6359827Y-1115303D01*
X6378874Y-1124827D01*
X6388398Y-1143874D01*
X6388398Y-1162922D01*
X6293160Y-1181970D01*
X6559827Y-1248636D02*
X6559827Y-1048636D01*
X6559827Y-1239112D02*
X6540779Y-1248636D01*
X6502684Y-1248636D01*
X6483636Y-1239112D01*
X6474112Y-1229589D01*
X6464588Y-1210541D01*
X6464588Y-1153398D01*
X6474112Y-1134350D01*
X6483636Y-1124827D01*
X6502684Y-1115303D01*
X6540779Y-1115303D01*
X6559827Y-1124827D01*
X6636017Y-1324827D02*
X6645541Y-1315303D01*
X6664588Y-1286731D01*
X6674112Y-1267684D01*
X6683636Y-1239112D01*
X6693160Y-1191493D01*
X6693160Y-1153398D01*
X6683636Y-1105779D01*
X6674112Y-1077208D01*
X6664588Y-1058160D01*
X6645541Y-1029588D01*
X6636017Y-1020065D01*
D13*
X-116840Y-1422160D02*
G75*
G03*
X-116840Y-1422160I-32500J0D01*
G01*
D11*
X178874Y-1312636D02*
X197922Y-1312636D01*
X216969Y-1322160D01*
X226493Y-1331684D01*
X236017Y-1350731D01*
X245541Y-1388827D01*
X245541Y-1436446D01*
X236017Y-1474541D01*
X226493Y-1493588D01*
X216969Y-1503112D01*
X197922Y-1512636D01*
X178874Y-1512636D01*
X159827Y-1503112D01*
X150303Y-1493588D01*
X140779Y-1474541D01*
X131255Y-1436446D01*
X131255Y-1388827D01*
X140779Y-1350731D01*
X150303Y-1331684D01*
X159827Y-1322160D01*
X178874Y-1312636D01*
X331255Y-1493588D02*
X340779Y-1503112D01*
X331255Y-1512636D01*
X321731Y-1503112D01*
X331255Y-1493588D01*
X331255Y-1512636D01*
X512208Y-1312636D02*
X474112Y-1312636D01*
X455065Y-1322160D01*
X445541Y-1331684D01*
X426493Y-1360255D01*
X416969Y-1398350D01*
X416969Y-1474541D01*
X426493Y-1493588D01*
X436017Y-1503112D01*
X455065Y-1512636D01*
X493160Y-1512636D01*
X512208Y-1503112D01*
X521731Y-1493588D01*
X531255Y-1474541D01*
X531255Y-1426922D01*
X521731Y-1407874D01*
X512208Y-1398350D01*
X493160Y-1388827D01*
X455065Y-1388827D01*
X436017Y-1398350D01*
X426493Y-1407874D01*
X416969Y-1426922D01*
X712208Y-1312636D02*
X616970Y-1312636D01*
X607446Y-1407874D01*
X616970Y-1398350D01*
X636017Y-1388827D01*
X683636Y-1388827D01*
X702684Y-1398350D01*
X712208Y-1407874D01*
X721731Y-1426922D01*
X721731Y-1474541D01*
X712208Y-1493588D01*
X702684Y-1503112D01*
X683636Y-1512636D01*
X636017Y-1512636D01*
X616970Y-1503112D01*
X607446Y-1493588D01*
X845541Y-1312636D02*
X864588Y-1312636D01*
X883636Y-1322160D01*
X893160Y-1331684D01*
X902684Y-1350731D01*
X912208Y-1388827D01*
X912208Y-1436446D01*
X902684Y-1474541D01*
X893160Y-1493588D01*
X883636Y-1503112D01*
X864588Y-1512636D01*
X845541Y-1512636D01*
X826493Y-1503112D01*
X816969Y-1493588D01*
X807446Y-1474541D01*
X797922Y-1436446D01*
X797922Y-1388827D01*
X807446Y-1350731D01*
X816969Y-1331684D01*
X826493Y-1322160D01*
X845541Y-1312636D01*
X997922Y-1512636D02*
X997922Y-1379303D01*
X997922Y-1398350D02*
X1007446Y-1388827D01*
X1026493Y-1379303D01*
X1055065Y-1379303D01*
X1074112Y-1388827D01*
X1083636Y-1407874D01*
X1083636Y-1512636D01*
X1083636Y-1407874D02*
X1093160Y-1388827D01*
X1112208Y-1379303D01*
X1140779Y-1379303D01*
X1159827Y-1388827D01*
X1169350Y-1407874D01*
X1169350Y-1512636D01*
X1264589Y-1512636D02*
X1264589Y-1379303D01*
X1264589Y-1398350D02*
X1274112Y-1388827D01*
X1293160Y-1379303D01*
X1321731Y-1379303D01*
X1340779Y-1388827D01*
X1350303Y-1407874D01*
X1350303Y-1512636D01*
X1350303Y-1407874D02*
X1359827Y-1388827D01*
X1378874Y-1379303D01*
X1407446Y-1379303D01*
X1426493Y-1388827D01*
X1436017Y-1407874D01*
X1436017Y-1512636D01*
X1826493Y-1303112D02*
X1655065Y-1560255D01*
X2083636Y-1312636D02*
X2102684Y-1312636D01*
X2121731Y-1322160D01*
X2131255Y-1331684D01*
X2140779Y-1350731D01*
X2150303Y-1388827D01*
X2150303Y-1436446D01*
X2140779Y-1474541D01*
X2131255Y-1493588D01*
X2121731Y-1503112D01*
X2102684Y-1512636D01*
X2083636Y-1512636D01*
X2064588Y-1503112D01*
X2055065Y-1493588D01*
X2045541Y-1474541D01*
X2036017Y-1436446D01*
X2036017Y-1388827D01*
X2045541Y-1350731D01*
X2055065Y-1331684D01*
X2064588Y-1322160D01*
X2083636Y-1312636D01*
X2236017Y-1493588D02*
X2245541Y-1503112D01*
X2236017Y-1512636D01*
X2226493Y-1503112D01*
X2236017Y-1493588D01*
X2236017Y-1512636D01*
X2369350Y-1312636D02*
X2388398Y-1312636D01*
X2407446Y-1322160D01*
X2416970Y-1331684D01*
X2426493Y-1350731D01*
X2436017Y-1388827D01*
X2436017Y-1436446D01*
X2426493Y-1474541D01*
X2416970Y-1493588D01*
X2407446Y-1503112D01*
X2388398Y-1512636D01*
X2369350Y-1512636D01*
X2350303Y-1503112D01*
X2340779Y-1493588D01*
X2331255Y-1474541D01*
X2321731Y-1436446D01*
X2321731Y-1388827D01*
X2331255Y-1350731D01*
X2340779Y-1331684D01*
X2350303Y-1322160D01*
X2369350Y-1312636D01*
X2512208Y-1331684D02*
X2521731Y-1322160D01*
X2540779Y-1312636D01*
X2588398Y-1312636D01*
X2607446Y-1322160D01*
X2616970Y-1331684D01*
X2626493Y-1350731D01*
X2626493Y-1369779D01*
X2616970Y-1398350D01*
X2502684Y-1512636D01*
X2626493Y-1512636D01*
X2807446Y-1312636D02*
X2712208Y-1312636D01*
X2702684Y-1407874D01*
X2712208Y-1398350D01*
X2731255Y-1388827D01*
X2778874Y-1388827D01*
X2797922Y-1398350D01*
X2807446Y-1407874D01*
X2816969Y-1426922D01*
X2816969Y-1474541D01*
X2807446Y-1493588D01*
X2797922Y-1503112D01*
X2778874Y-1512636D01*
X2731255Y-1512636D01*
X2712208Y-1503112D01*
X2702684Y-1493588D01*
X2988398Y-1312636D02*
X2950303Y-1312636D01*
X2931255Y-1322160D01*
X2921731Y-1331684D01*
X2902684Y-1360255D01*
X2893160Y-1398350D01*
X2893160Y-1474541D01*
X2902684Y-1493588D01*
X2912208Y-1503112D01*
X2931255Y-1512636D01*
X2969350Y-1512636D01*
X2988398Y-1503112D01*
X2997922Y-1493588D01*
X3007446Y-1474541D01*
X3007446Y-1426922D01*
X2997922Y-1407874D01*
X2988398Y-1398350D01*
X2969350Y-1388827D01*
X2931255Y-1388827D01*
X2912208Y-1398350D01*
X2902684Y-1407874D01*
X2893160Y-1426922D01*
X3083636Y-1312636D02*
X3083636Y-1350731D01*
X3159827Y-1312636D02*
X3159827Y-1350731D01*
X3455065Y-1588827D02*
X3445541Y-1579303D01*
X3426493Y-1550731D01*
X3416969Y-1531684D01*
X3407446Y-1503112D01*
X3397922Y-1455493D01*
X3397922Y-1417398D01*
X3407446Y-1369779D01*
X3416969Y-1341208D01*
X3426493Y-1322160D01*
X3445541Y-1293589D01*
X3455065Y-1284065D01*
X3521731Y-1331684D02*
X3531255Y-1322160D01*
X3550303Y-1312636D01*
X3597922Y-1312636D01*
X3616969Y-1322160D01*
X3626493Y-1331684D01*
X3636017Y-1350731D01*
X3636017Y-1369779D01*
X3626493Y-1398350D01*
X3512208Y-1512636D01*
X3636017Y-1512636D01*
X3874112Y-1512636D02*
X3874112Y-1312636D01*
X3959827Y-1512636D02*
X3959827Y-1407874D01*
X3950303Y-1388827D01*
X3931255Y-1379303D01*
X3902684Y-1379303D01*
X3883636Y-1388827D01*
X3874112Y-1398350D01*
X4083636Y-1512636D02*
X4064588Y-1503112D01*
X4055065Y-1493588D01*
X4045541Y-1474541D01*
X4045541Y-1417398D01*
X4055065Y-1398350D01*
X4064588Y-1388827D01*
X4083636Y-1379303D01*
X4112208Y-1379303D01*
X4131255Y-1388827D01*
X4140779Y-1398350D01*
X4150303Y-1417398D01*
X4150303Y-1474541D01*
X4140779Y-1493588D01*
X4131255Y-1503112D01*
X4112208Y-1512636D01*
X4083636Y-1512636D01*
X4264589Y-1512636D02*
X4245541Y-1503112D01*
X4236017Y-1484065D01*
X4236017Y-1312636D01*
X4416970Y-1503112D02*
X4397922Y-1512636D01*
X4359827Y-1512636D01*
X4340779Y-1503112D01*
X4331255Y-1484065D01*
X4331255Y-1407874D01*
X4340779Y-1388827D01*
X4359827Y-1379303D01*
X4397922Y-1379303D01*
X4416970Y-1388827D01*
X4426493Y-1407874D01*
X4426493Y-1426922D01*
X4331255Y-1445969D01*
X4502684Y-1503112D02*
X4521731Y-1512636D01*
X4559827Y-1512636D01*
X4578874Y-1503112D01*
X4588398Y-1484065D01*
X4588398Y-1474541D01*
X4578874Y-1455493D01*
X4559827Y-1445969D01*
X4531255Y-1445969D01*
X4512208Y-1436446D01*
X4502684Y-1417398D01*
X4502684Y-1407874D01*
X4512208Y-1388827D01*
X4531255Y-1379303D01*
X4559827Y-1379303D01*
X4578874Y-1388827D01*
X4655065Y-1588827D02*
X4664589Y-1579303D01*
X4683636Y-1550731D01*
X4693160Y-1531684D01*
X4702684Y-1503112D01*
X4712208Y-1455493D01*
X4712208Y-1417398D01*
X4702684Y-1369779D01*
X4693160Y-1341208D01*
X4683636Y-1322160D01*
X4664589Y-1293589D01*
X4655065Y-1284065D01*
X5016970Y-1588827D02*
X5007446Y-1579303D01*
X4988398Y-1550731D01*
X4978874Y-1531684D01*
X4969350Y-1503112D01*
X4959827Y-1455493D01*
X4959827Y-1417398D01*
X4969350Y-1369779D01*
X4978874Y-1341208D01*
X4988398Y-1322160D01*
X5007446Y-1293589D01*
X5016970Y-1284065D01*
X5093160Y-1379303D02*
X5093160Y-1512636D01*
X5093160Y-1398350D02*
X5102684Y-1388827D01*
X5121731Y-1379303D01*
X5150303Y-1379303D01*
X5169350Y-1388827D01*
X5178874Y-1407874D01*
X5178874Y-1512636D01*
X5302684Y-1512636D02*
X5283636Y-1503112D01*
X5274112Y-1493588D01*
X5264589Y-1474541D01*
X5264589Y-1417398D01*
X5274112Y-1398350D01*
X5283636Y-1388827D01*
X5302684Y-1379303D01*
X5331255Y-1379303D01*
X5350303Y-1388827D01*
X5359827Y-1398350D01*
X5369350Y-1417398D01*
X5369350Y-1474541D01*
X5359827Y-1493588D01*
X5350303Y-1503112D01*
X5331255Y-1512636D01*
X5302684Y-1512636D01*
X5426493Y-1379303D02*
X5502684Y-1379303D01*
X5455065Y-1312636D02*
X5455065Y-1484065D01*
X5464589Y-1503112D01*
X5483636Y-1512636D01*
X5502684Y-1512636D01*
X5721731Y-1379303D02*
X5721731Y-1579303D01*
X5721731Y-1388827D02*
X5740779Y-1379303D01*
X5778874Y-1379303D01*
X5797922Y-1388827D01*
X5807446Y-1398350D01*
X5816969Y-1417398D01*
X5816969Y-1474541D01*
X5807446Y-1493588D01*
X5797922Y-1503112D01*
X5778874Y-1512636D01*
X5740779Y-1512636D01*
X5721731Y-1503112D01*
X5931255Y-1512636D02*
X5912208Y-1503112D01*
X5902684Y-1484065D01*
X5902684Y-1312636D01*
X6093160Y-1512636D02*
X6093160Y-1407874D01*
X6083636Y-1388827D01*
X6064588Y-1379303D01*
X6026493Y-1379303D01*
X6007446Y-1388827D01*
X6093160Y-1503112D02*
X6074112Y-1512636D01*
X6026493Y-1512636D01*
X6007446Y-1503112D01*
X5997922Y-1484065D01*
X5997922Y-1465017D01*
X6007446Y-1445969D01*
X6026493Y-1436446D01*
X6074112Y-1436446D01*
X6093160Y-1426922D01*
X6159827Y-1379303D02*
X6236017Y-1379303D01*
X6188398Y-1312636D02*
X6188398Y-1484065D01*
X6197922Y-1503112D01*
X6216969Y-1512636D01*
X6236017Y-1512636D01*
X6378874Y-1503112D02*
X6359827Y-1512636D01*
X6321731Y-1512636D01*
X6302684Y-1503112D01*
X6293160Y-1484065D01*
X6293160Y-1407874D01*
X6302684Y-1388827D01*
X6321731Y-1379303D01*
X6359827Y-1379303D01*
X6378874Y-1388827D01*
X6388398Y-1407874D01*
X6388398Y-1426922D01*
X6293160Y-1445969D01*
X6559827Y-1512636D02*
X6559827Y-1312636D01*
X6559827Y-1503112D02*
X6540779Y-1512636D01*
X6502684Y-1512636D01*
X6483636Y-1503112D01*
X6474112Y-1493588D01*
X6464588Y-1474541D01*
X6464588Y-1417398D01*
X6474112Y-1398350D01*
X6483636Y-1388827D01*
X6502684Y-1379303D01*
X6540779Y-1379303D01*
X6559827Y-1388827D01*
X6636017Y-1588827D02*
X6645541Y-1579303D01*
X6664588Y-1550731D01*
X6674112Y-1531684D01*
X6683636Y-1503112D01*
X6693160Y-1455493D01*
X6693160Y-1417398D01*
X6683636Y-1369779D01*
X6674112Y-1341208D01*
X6664588Y-1322160D01*
X6645541Y-1293589D01*
X6636017Y-1284065D01*
M02*
