G04 #@! TF.GenerationSoftware,KiCad,Pcbnew,(6.0.5)*
G04 #@! TF.CreationDate,2022-09-22T00:28:13+02:00*
G04 #@! TF.ProjectId,OrangePill,4f72616e-6765-4506-996c-6c2e6b696361,rev?*
G04 #@! TF.SameCoordinates,PX631f320PY48ab840*
G04 #@! TF.FileFunction,Copper,L1,Top*
G04 #@! TF.FilePolarity,Positive*
%FSLAX46Y46*%
G04 Gerber Fmt 4.6, Leading zero omitted, Abs format (unit mm)*
G04 Created by KiCad (PCBNEW (6.0.5)) date 2022-09-22 00:28:13*
%MOMM*%
%LPD*%
G01*
G04 APERTURE LIST*
G04 Aperture macros list*
%AMRoundRect*
0 Rectangle with rounded corners*
0 $1 Rounding radius*
0 $2 $3 $4 $5 $6 $7 $8 $9 X,Y pos of 4 corners*
0 Add a 4 corners polygon primitive as box body*
4,1,4,$2,$3,$4,$5,$6,$7,$8,$9,$2,$3,0*
0 Add four circle primitives for the rounded corners*
1,1,$1+$1,$2,$3*
1,1,$1+$1,$4,$5*
1,1,$1+$1,$6,$7*
1,1,$1+$1,$8,$9*
0 Add four rect primitives between the rounded corners*
20,1,$1+$1,$2,$3,$4,$5,0*
20,1,$1+$1,$4,$5,$6,$7,0*
20,1,$1+$1,$6,$7,$8,$9,0*
20,1,$1+$1,$8,$9,$2,$3,0*%
G04 Aperture macros list end*
G04 #@! TA.AperFunction,SMDPad,CuDef*
%ADD10R,0.700000X0.700000*%
G04 #@! TD*
G04 #@! TA.AperFunction,SMDPad,CuDef*
%ADD11RoundRect,0.200000X0.275000X-0.200000X0.275000X0.200000X-0.275000X0.200000X-0.275000X-0.200000X0*%
G04 #@! TD*
G04 #@! TA.AperFunction,SMDPad,CuDef*
%ADD12R,1.150000X0.300000*%
G04 #@! TD*
G04 #@! TA.AperFunction,ComponentPad*
%ADD13O,1.600000X1.000000*%
G04 #@! TD*
G04 #@! TA.AperFunction,ComponentPad*
%ADD14O,2.100000X1.000000*%
G04 #@! TD*
G04 #@! TA.AperFunction,SMDPad,CuDef*
%ADD15RoundRect,0.225000X-0.225000X-0.250000X0.225000X-0.250000X0.225000X0.250000X-0.225000X0.250000X0*%
G04 #@! TD*
G04 #@! TA.AperFunction,SMDPad,CuDef*
%ADD16C,1.000000*%
G04 #@! TD*
G04 #@! TA.AperFunction,SMDPad,CuDef*
%ADD17RoundRect,0.225000X0.250000X-0.225000X0.250000X0.225000X-0.250000X0.225000X-0.250000X-0.225000X0*%
G04 #@! TD*
G04 #@! TA.AperFunction,SMDPad,CuDef*
%ADD18RoundRect,0.200000X-0.275000X0.200000X-0.275000X-0.200000X0.275000X-0.200000X0.275000X0.200000X0*%
G04 #@! TD*
G04 #@! TA.AperFunction,SMDPad,CuDef*
%ADD19RoundRect,0.200000X-0.200000X-0.275000X0.200000X-0.275000X0.200000X0.275000X-0.200000X0.275000X0*%
G04 #@! TD*
G04 #@! TA.AperFunction,SMDPad,CuDef*
%ADD20C,0.500000*%
G04 #@! TD*
G04 #@! TA.AperFunction,SMDPad,CuDef*
%ADD21R,1.200000X0.900000*%
G04 #@! TD*
G04 #@! TA.AperFunction,SMDPad,CuDef*
%ADD22R,1.300000X1.150000*%
G04 #@! TD*
G04 #@! TA.AperFunction,ViaPad*
%ADD23C,0.609600*%
G04 #@! TD*
G04 #@! TA.AperFunction,Conductor*
%ADD24C,0.177800*%
G04 #@! TD*
G04 #@! TA.AperFunction,Conductor*
%ADD25C,0.279400*%
G04 #@! TD*
G04 #@! TA.AperFunction,Conductor*
%ADD26C,0.254000*%
G04 #@! TD*
G04 #@! TA.AperFunction,Conductor*
%ADD27C,0.304800*%
G04 #@! TD*
G04 #@! TA.AperFunction,Conductor*
%ADD28C,0.381000*%
G04 #@! TD*
G04 #@! TA.AperFunction,Conductor*
%ADD29C,0.203200*%
G04 #@! TD*
G04 #@! TA.AperFunction,Conductor*
%ADD30C,0.250000*%
G04 #@! TD*
G04 APERTURE END LIST*
D10*
X17627612Y-1017210D03*
X18727612Y-1017210D03*
X18727612Y812790D03*
X17627612Y812790D03*
D11*
X11176000Y-2755400D03*
X11176000Y-1105400D03*
D12*
X6413200Y3350000D03*
X6413200Y2550000D03*
X6413200Y1250000D03*
X6413200Y250000D03*
X6413200Y-250000D03*
X6413200Y-1250000D03*
X6413200Y-2550000D03*
X6413200Y-3350000D03*
X6413200Y-3050000D03*
X6413200Y-2250000D03*
X6413200Y-1750000D03*
X6413200Y-750000D03*
X6413200Y750000D03*
X6413200Y1750000D03*
X6413200Y2250000D03*
X6413200Y3050000D03*
D13*
X1668200Y-4320000D03*
X1668200Y4320000D03*
D14*
X5848200Y4320000D03*
X5848200Y-4320000D03*
D15*
X8724600Y3149600D03*
X10274600Y3149600D03*
D10*
X15087612Y863600D03*
X16187612Y863600D03*
X16187612Y-966400D03*
X15087612Y-966400D03*
X21132800Y-966400D03*
X20032800Y-966400D03*
X20032800Y863600D03*
X21132800Y863600D03*
D16*
X12801600Y-4064000D03*
D17*
X8788400Y-2705400D03*
X8788400Y-1155400D03*
D16*
X12801600Y4013200D03*
D18*
X12446000Y-1105400D03*
X12446000Y-2755400D03*
D15*
X8775400Y762000D03*
X10325400Y762000D03*
D19*
X8725400Y1930400D03*
X10375400Y1930400D03*
D16*
X11277600Y4064000D03*
D17*
X10007600Y-2705400D03*
X10007600Y-1155400D03*
D20*
X0Y0D03*
D21*
X24079200Y2388000D03*
X24079200Y-2212000D03*
D22*
X22529200Y1763000D03*
X22529200Y-1587000D03*
D23*
X7638431Y-4484102D03*
X12794102Y-698000D03*
X15333360Y1270937D03*
X7744102Y2415898D03*
X20929600Y-101600D03*
X11854119Y-4475597D03*
X5182040Y356040D03*
X5130800Y1447800D03*
X4978400Y-1371600D03*
X14342342Y3708400D03*
X21091571Y3561871D03*
X16941800Y3860211D03*
X13255280Y3104934D03*
X22707600Y-3810000D03*
X20790400Y2123966D03*
X13989207Y-3863779D03*
X10325400Y-190200D03*
X15507200Y2607381D03*
X11836400Y-101600D03*
X8737600Y-220500D03*
X11836400Y1473200D03*
X10375400Y1282200D03*
X3708400Y-50800D03*
X9360200Y-1155400D03*
X17678400Y2082800D03*
X22421362Y4093795D03*
X3537533Y-1891319D03*
X3759200Y914400D03*
X13716000Y-3098800D03*
X11462444Y-2632485D03*
X11460206Y2428832D03*
X14888401Y-46799D03*
X22707600Y2743200D03*
D24*
X17264577Y2496623D02*
X17264577Y2607381D01*
X17678400Y2082800D02*
X17264577Y2496623D01*
X8724600Y3149600D02*
X8890000Y3149600D01*
D25*
X8788400Y-2705400D02*
X10007600Y-2705400D01*
X10007600Y-2705400D02*
X10007600Y-2432853D01*
D24*
X8477804Y3149600D02*
X7744102Y2415898D01*
D25*
X11176000Y-1264453D02*
X11176000Y-1105400D01*
X11176000Y-1105400D02*
X12446000Y-1105400D01*
X8788400Y-2794000D02*
X8788400Y-2705400D01*
D24*
X9499600Y2540000D02*
X9499600Y1219200D01*
D26*
X16916400Y101600D02*
X15646400Y101600D01*
D25*
X10007600Y-2432853D02*
X11176000Y-1264453D01*
X7638431Y-3943969D02*
X8788400Y-2794000D01*
D24*
X8724600Y3149600D02*
X8477804Y3149600D01*
X9499600Y1219200D02*
X8991600Y711200D01*
X12794102Y-808098D02*
X12496800Y-1105400D01*
X8991600Y711200D02*
X8775400Y711200D01*
X12794102Y-698000D02*
X12794102Y-808098D01*
D26*
X15646400Y101600D02*
X15087612Y660388D01*
X17627600Y812800D02*
X16916400Y101600D01*
D25*
X7638431Y-4484102D02*
X7638431Y-3943969D01*
D24*
X8890000Y3149600D02*
X9499600Y2540000D01*
D27*
X21132800Y-304800D02*
X20929600Y-101600D01*
X21132800Y-966400D02*
X21132800Y-304800D01*
D24*
X15333360Y1109348D02*
X15087612Y863600D01*
X15333360Y1270937D02*
X15333360Y1109348D01*
D26*
X15087612Y660388D02*
X15087612Y863600D01*
D24*
X11854119Y-4475597D02*
X12339203Y-4475597D01*
X12339203Y-4475597D02*
X12750800Y-4064000D01*
X6413200Y1250000D02*
X7193600Y1250000D01*
X8051258Y1879600D02*
X8725400Y1879600D01*
X7763087Y1819487D02*
X7991145Y1819487D01*
X7193600Y1250000D02*
X7763087Y1819487D01*
X7991145Y1819487D02*
X8051258Y1879600D01*
X5288080Y250000D02*
X5182040Y356040D01*
X7174800Y-750000D02*
X6413200Y-750000D01*
X7221422Y250000D02*
X7366000Y105422D01*
X6413200Y250000D02*
X7221422Y250000D01*
X7366000Y105422D02*
X7366000Y-558800D01*
X7366000Y-558800D02*
X7174800Y-750000D01*
X6413200Y250000D02*
X5288080Y250000D01*
X5130800Y1447800D02*
X5130800Y1320800D01*
X4521200Y101600D02*
X4872800Y-250000D01*
X4521200Y711200D02*
X4521200Y101600D01*
X5130800Y1320800D02*
X4521200Y711200D01*
X5701600Y750000D02*
X6413200Y750000D01*
X5130800Y1320800D02*
X5701600Y750000D01*
X4872800Y-250000D02*
X6413200Y-250000D01*
X6413200Y-1750000D02*
X5763200Y-1750000D01*
X5763200Y-1750000D02*
X5384800Y-1371600D01*
X5384800Y-1371600D02*
X4978400Y-1371600D01*
X20284642Y4368800D02*
X16916400Y4368800D01*
X21091571Y3561871D02*
X20284642Y4368800D01*
X16916400Y4368800D02*
X15002742Y4368800D01*
X15002742Y4368800D02*
X14342342Y3708400D01*
X16941800Y3860211D02*
X16916400Y3885611D01*
X16916400Y3885611D02*
X16916400Y4368800D01*
X17208980Y-317020D02*
X17697189Y171189D01*
X15087612Y-783178D02*
X15553770Y-317020D01*
X15553770Y-317020D02*
X17208980Y-317020D01*
X15087612Y-966400D02*
X15087612Y-783178D01*
X17697189Y171189D02*
X18269211Y171189D01*
X18727600Y629578D02*
X18727600Y812800D01*
X18269211Y171189D02*
X18727600Y629578D01*
X16187612Y863600D02*
X16187612Y1643188D01*
X15849600Y1981200D02*
X15289927Y1981200D01*
X15289927Y1981200D02*
X14833600Y2437527D01*
X16187612Y1643188D02*
X15849600Y1981200D01*
X14833600Y2692400D02*
X14421066Y3104934D01*
X14421066Y3104934D02*
X13255280Y3104934D01*
X14833600Y2437527D02*
X14833600Y2692400D01*
X13989207Y-3863779D02*
X14240228Y-4114800D01*
X17033624Y-2235200D02*
X16187612Y-1389188D01*
X20790400Y2123966D02*
X19406648Y3507718D01*
X14312411Y-3540575D02*
X13989207Y-3863779D01*
D28*
X8547400Y-1155400D02*
X8788400Y-1155400D01*
D24*
X11138200Y-101600D02*
X10325400Y711200D01*
D28*
X7670800Y-2032000D02*
X8547400Y-1155400D01*
D24*
X18491200Y-2235200D02*
X17033624Y-2235200D01*
X23154200Y-2212000D02*
X22529200Y-1587000D01*
D29*
X2462744Y-4240744D02*
X1715553Y-4240744D01*
D24*
X15789023Y-1892789D02*
X14312411Y-1892789D01*
X22846811Y4013200D02*
X22846811Y3962400D01*
D29*
X2592800Y4320000D02*
X2540000Y4267200D01*
D24*
X22846811Y3962400D02*
X23132600Y3962400D01*
X23512979Y1172538D02*
X24079200Y1738759D01*
D27*
X10007600Y-1155400D02*
X9360200Y-1155400D01*
D24*
X21793200Y2946400D02*
X18726232Y2946400D01*
X14312411Y-1892789D02*
X14312411Y-3540575D01*
X17264577Y2607381D02*
X18164914Y3507718D01*
X6413195Y-3050007D02*
X6413195Y-3289605D01*
X18727600Y-1017200D02*
X18727600Y-1998800D01*
X23873800Y-2643800D02*
X22707600Y-3810000D01*
X16187612Y-1389188D02*
X16187612Y-1494200D01*
X19406648Y3507718D02*
X18164914Y3507718D01*
D29*
X5795400Y-4267200D02*
X2489200Y-4267200D01*
D24*
X24079200Y3015800D02*
X24079200Y2388000D01*
D28*
X7175200Y-3289600D02*
X7670800Y-2794000D01*
D27*
X9360200Y-1155400D02*
X8788400Y-1155400D01*
D24*
X10325400Y-190200D02*
X10325400Y-837600D01*
X15507200Y2607381D02*
X17264577Y2607381D01*
X10274600Y3149600D02*
X10274600Y1980400D01*
X16187612Y-1494200D02*
X15789023Y-1892789D01*
D28*
X6413200Y-3289600D02*
X7175200Y-3289600D01*
D24*
X10375400Y1879600D02*
X10375400Y1282200D01*
D29*
X5848200Y4320000D02*
X2592800Y4320000D01*
D24*
X10375400Y761200D02*
X10325400Y711200D01*
X18727600Y-1998800D02*
X18491200Y-2235200D01*
X18726232Y2946400D02*
X18164914Y3507718D01*
X22421362Y3574562D02*
X21793200Y2946400D01*
D29*
X5856400Y3606800D02*
X3454400Y3606800D01*
D24*
X20167600Y-4114800D02*
X20472400Y-3810000D01*
X22529200Y-1587000D02*
X22529200Y-534000D01*
D29*
X2489200Y-4267200D02*
X2462744Y-4240744D01*
D24*
X20472400Y-3810000D02*
X22707600Y-3810000D01*
X23442000Y-2212000D02*
X23873800Y-2643800D01*
D29*
X6413200Y3755000D02*
X5848200Y4320000D01*
X5848200Y-4320000D02*
X5795400Y-4267200D01*
X3454400Y3606800D02*
X1676400Y1828800D01*
X6413200Y-3350000D02*
X6413200Y-3755000D01*
D24*
X10325400Y-837600D02*
X10007600Y-1155400D01*
D28*
X7670800Y-2794000D02*
X7670800Y-2032000D01*
D27*
X3708400Y-50800D02*
X1727200Y-50800D01*
D24*
X22501957Y4013200D02*
X22846811Y4013200D01*
X24079200Y-2212000D02*
X23442000Y-2212000D01*
D29*
X6413200Y3350000D02*
X6413200Y3755000D01*
D24*
X23132600Y3962400D02*
X24079200Y3015800D01*
X13309600Y-101600D02*
X14312411Y-1104411D01*
X16187612Y-966400D02*
X16187612Y-1389188D01*
X14312411Y-1104411D02*
X14312411Y-1892789D01*
X10274600Y1980400D02*
X10375400Y1879600D01*
X22529200Y-534000D02*
X23512979Y449779D01*
D27*
X1727200Y-50800D02*
X1676400Y0D01*
D24*
X24079200Y1738759D02*
X24079200Y2388000D01*
D29*
X1676400Y1828800D02*
X1676400Y0D01*
D24*
X22421362Y4093795D02*
X22501957Y4013200D01*
X10375400Y1282200D02*
X10375400Y761200D01*
X23442000Y-2212000D02*
X23154200Y-2212000D01*
X11836400Y-101600D02*
X11138200Y-101600D01*
X11836400Y-101600D02*
X13309600Y-101600D01*
X10325400Y711200D02*
X10325400Y-190200D01*
X20032800Y1366366D02*
X20032800Y863600D01*
D29*
X1676400Y0D02*
X1676400Y-3810000D01*
X6413200Y-3755000D02*
X5848200Y-4320000D01*
D24*
X23512979Y449779D02*
X23512979Y1172538D01*
X22421362Y4093795D02*
X22421362Y3574562D01*
D29*
X6413200Y3050000D02*
X5856400Y3606800D01*
D24*
X14240228Y-4114800D02*
X20167600Y-4114800D01*
X20790400Y2123966D02*
X20032800Y1366366D01*
X18288000Y-254000D02*
X19320400Y-254000D01*
X17627600Y-914400D02*
X18288000Y-254000D01*
X17373600Y-914400D02*
X17627600Y-914400D01*
X17627600Y-1017200D02*
X17627600Y-914400D01*
X19320400Y-254000D02*
X20032800Y-966400D01*
D27*
X5486289Y2104511D02*
X5633689Y2251911D01*
X3581400Y-1930400D02*
X3498452Y-1930400D01*
X3933390Y2104511D02*
X5486289Y2104511D01*
X3759200Y1930321D02*
X3933390Y2104511D01*
D30*
X4723419Y-2006600D02*
X5435136Y-2006600D01*
D27*
X5633689Y2251911D02*
X6413200Y2251911D01*
D30*
X5678536Y-2250000D02*
X6413200Y-2250000D01*
D27*
X3498452Y-1930400D02*
X3537533Y-1891319D01*
D30*
X5435136Y-2006600D02*
X5678536Y-2250000D01*
D29*
X6413200Y2250000D02*
X6413200Y2550000D01*
D30*
X3581400Y-1930400D02*
X4647219Y-1930400D01*
D29*
X6413195Y-2550008D02*
X6123889Y-2260676D01*
D27*
X3759200Y863521D02*
X3759200Y1930321D01*
D30*
X4647219Y-1930400D02*
X4723419Y-2006600D01*
D24*
X13118600Y-2755400D02*
X12496800Y-2755400D01*
X13716000Y-3098800D02*
X13462000Y-3098800D01*
X13462000Y-3098800D02*
X13118600Y-2755400D01*
X11462444Y-2632485D02*
X11339529Y-2755400D01*
X11339529Y-2755400D02*
X11176000Y-2755400D01*
X11460206Y2428832D02*
X11277600Y2611438D01*
X11277600Y2611438D02*
X11277600Y4064000D01*
X14888401Y-46799D02*
X14714789Y-46799D01*
X12814789Y4178789D02*
X12852400Y4216400D01*
X12547600Y2969160D02*
X12547600Y3759200D01*
X14714789Y-46799D02*
X14071600Y596390D01*
X13950677Y2508523D02*
X13008237Y2508523D01*
X14071600Y596390D02*
X14071600Y2387600D01*
X13008237Y2508523D02*
X12547600Y2969160D01*
X14071600Y2387600D02*
X13950677Y2508523D01*
X12547600Y3759200D02*
X12801600Y4013200D01*
X22707600Y1941400D02*
X22529200Y1763000D01*
X22707600Y2743200D02*
X22707600Y1941400D01*
X22758400Y1992200D02*
X22529200Y1763000D01*
G04 #@! TA.AperFunction,Conductor*
G36*
X4513358Y4805498D02*
G01*
X4559851Y4751842D01*
X4569955Y4681568D01*
X4563936Y4657232D01*
X4512070Y4511578D01*
X4508872Y4497942D01*
X4507971Y4490389D01*
X4510398Y4475982D01*
X4523166Y4472400D01*
X7173345Y4472400D01*
X7187636Y4476596D01*
X7189582Y4488514D01*
X7186929Y4500581D01*
X7133034Y4658894D01*
X7130016Y4729827D01*
X7165826Y4791131D01*
X7229094Y4823342D01*
X7252312Y4825500D01*
X10668029Y4825500D01*
X10736150Y4805498D01*
X10782643Y4751842D01*
X10792747Y4681568D01*
X10763253Y4616988D01*
X10756188Y4609478D01*
X10689205Y4543883D01*
X10685394Y4537969D01*
X10685392Y4537967D01*
X10659640Y4498008D01*
X10597509Y4401600D01*
X10588232Y4376112D01*
X10542025Y4249160D01*
X10542024Y4249155D01*
X10539615Y4242537D01*
X10518400Y4074601D01*
X10519088Y4067584D01*
X10520009Y4058188D01*
X10506752Y3988441D01*
X10457890Y3936933D01*
X10430110Y3924994D01*
X10429876Y3924925D01*
X10428671Y3923535D01*
X10427000Y3915852D01*
X10427000Y2768315D01*
X10431475Y2753076D01*
X10437255Y2748067D01*
X10490894Y2718779D01*
X10524920Y2656467D01*
X10527800Y2629682D01*
X10527800Y1207505D01*
X10507798Y1139384D01*
X10497025Y1124993D01*
X10479471Y1104735D01*
X10477800Y1097052D01*
X10477800Y932515D01*
X10482275Y917276D01*
X10483665Y916071D01*
X10491348Y914400D01*
X11062085Y914400D01*
X11077324Y918875D01*
X11078529Y920265D01*
X11080200Y927948D01*
X11080200Y1049371D01*
X11079744Y1056925D01*
X11070717Y1131522D01*
X11066763Y1147093D01*
X11019471Y1266539D01*
X11014775Y1274874D01*
X10998762Y1344041D01*
X11014029Y1397234D01*
X11025887Y1418893D01*
X11070722Y1538492D01*
X11074347Y1553738D01*
X11079831Y1604219D01*
X11080200Y1611033D01*
X11080200Y1792281D01*
X11100202Y1860402D01*
X11153858Y1906895D01*
X11224132Y1916999D01*
X11254419Y1908690D01*
X11260187Y1906301D01*
X11314199Y1883928D01*
X11322383Y1882851D01*
X11322385Y1882850D01*
X11452018Y1865784D01*
X11460206Y1864706D01*
X11468394Y1865784D01*
X11598027Y1882850D01*
X11598029Y1882851D01*
X11606213Y1883928D01*
X11742269Y1940285D01*
X11859103Y2029935D01*
X11948753Y2146769D01*
X12005110Y2282825D01*
X12008910Y2311685D01*
X12023254Y2420644D01*
X12024332Y2428832D01*
X12021273Y2452064D01*
X12006188Y2566653D01*
X12006187Y2566655D01*
X12005110Y2574839D01*
X11948753Y2710895D01*
X11859103Y2827729D01*
X11742269Y2917379D01*
X11734646Y2920537D01*
X11734640Y2920540D01*
X11698780Y2935394D01*
X11643500Y2979943D01*
X11621000Y3051802D01*
X11621000Y3318693D01*
X11641002Y3386814D01*
X11682483Y3426922D01*
X11730607Y3455609D01*
X11730614Y3455614D01*
X11736656Y3459216D01*
X11859238Y3575948D01*
X11919408Y3666511D01*
X11973764Y3712180D01*
X12044184Y3721213D01*
X12108308Y3690740D01*
X12132131Y3662055D01*
X12185976Y3573147D01*
X12204200Y3507875D01*
X12204200Y2989652D01*
X12203721Y2978670D01*
X12201501Y2953293D01*
X12200230Y2938769D01*
X12210600Y2900066D01*
X12212976Y2889348D01*
X12216853Y2867362D01*
X12219932Y2849899D01*
X12225442Y2840356D01*
X12226911Y2836319D01*
X12228721Y2832437D01*
X12231573Y2821794D01*
X12237894Y2812767D01*
X12237895Y2812764D01*
X12254558Y2788966D01*
X12260458Y2779705D01*
X12280483Y2745022D01*
X12288930Y2737934D01*
X12311161Y2719280D01*
X12319265Y2711854D01*
X12750926Y2280193D01*
X12758353Y2272089D01*
X12784099Y2241406D01*
X12793646Y2235894D01*
X12818793Y2221375D01*
X12828059Y2215471D01*
X12860871Y2192497D01*
X12871524Y2189643D01*
X12875422Y2187825D01*
X12879432Y2186365D01*
X12888976Y2180855D01*
X12899827Y2178942D01*
X12899834Y2178939D01*
X12928433Y2173896D01*
X12939160Y2171518D01*
X12967200Y2164005D01*
X12967203Y2164005D01*
X12977846Y2161153D01*
X12988820Y2162113D01*
X12988822Y2162113D01*
X13017747Y2164644D01*
X13028729Y2165123D01*
X13602200Y2165123D01*
X13670321Y2145121D01*
X13716814Y2091465D01*
X13728200Y2039123D01*
X13728200Y616882D01*
X13727721Y605900D01*
X13725770Y583597D01*
X13724230Y565999D01*
X13734600Y527296D01*
X13736975Y516581D01*
X13737598Y513052D01*
X13741921Y488534D01*
X13743932Y477129D01*
X13749442Y467586D01*
X13750911Y463549D01*
X13752721Y459667D01*
X13755573Y449024D01*
X13761894Y439997D01*
X13761895Y439994D01*
X13778558Y416196D01*
X13784458Y406935D01*
X13804483Y372252D01*
X13812930Y365164D01*
X13835161Y346510D01*
X13843265Y339084D01*
X14309560Y-127211D01*
X14342172Y-183697D01*
X14342419Y-184620D01*
X14343497Y-192806D01*
X14399854Y-328862D01*
X14465297Y-414148D01*
X14472679Y-423769D01*
X14498280Y-489989D01*
X14496296Y-525051D01*
X14483112Y-591333D01*
X14483113Y-1341466D01*
X14497878Y-1415701D01*
X14504773Y-1426021D01*
X14504774Y-1426022D01*
X14537612Y-1475166D01*
X14554128Y-1499884D01*
X14564444Y-1506777D01*
X14607615Y-1535623D01*
X14638311Y-1556134D01*
X14712545Y-1570900D01*
X15087551Y-1570900D01*
X15462678Y-1570899D01*
X15536913Y-1556134D01*
X15541823Y-1552853D01*
X15607933Y-1545746D01*
X15656746Y-1565780D01*
X15673065Y-1576954D01*
X15757613Y-1614332D01*
X15775690Y-1619260D01*
X15788687Y-1620776D01*
X15795988Y-1621200D01*
X16017097Y-1621200D01*
X16032336Y-1616725D01*
X16033541Y-1615335D01*
X16035212Y-1607652D01*
X16035212Y-940000D01*
X16055214Y-871879D01*
X16108870Y-825386D01*
X16161212Y-814000D01*
X16214012Y-814000D01*
X16282133Y-834002D01*
X16328626Y-887658D01*
X16340012Y-940000D01*
X16340012Y-1603085D01*
X16344487Y-1618324D01*
X16345877Y-1619529D01*
X16353560Y-1621200D01*
X16579164Y-1621200D01*
X16586609Y-1620758D01*
X16600087Y-1619155D01*
X16618107Y-1614202D01*
X16702613Y-1576667D01*
X16721461Y-1563713D01*
X16785245Y-1499817D01*
X16798167Y-1480946D01*
X16807352Y-1460169D01*
X16853190Y-1405952D01*
X16921063Y-1385124D01*
X16989421Y-1404297D01*
X17036593Y-1460051D01*
X17037878Y-1466511D01*
X17044771Y-1476828D01*
X17044772Y-1476829D01*
X17064783Y-1506777D01*
X17094128Y-1550694D01*
X17178311Y-1606944D01*
X17252545Y-1621710D01*
X17627551Y-1621710D01*
X18002678Y-1621709D01*
X18076913Y-1606944D01*
X18081823Y-1603663D01*
X18147933Y-1596556D01*
X18196746Y-1616590D01*
X18213065Y-1627764D01*
X18297613Y-1665142D01*
X18315690Y-1670070D01*
X18328687Y-1671586D01*
X18335988Y-1672010D01*
X18557097Y-1672010D01*
X18572336Y-1667535D01*
X18573541Y-1666145D01*
X18575212Y-1658462D01*
X18575212Y-990810D01*
X18595214Y-922689D01*
X18648870Y-876196D01*
X18701212Y-864810D01*
X18754012Y-864810D01*
X18822133Y-884812D01*
X18868626Y-938468D01*
X18880012Y-990810D01*
X18880012Y-1653895D01*
X18884487Y-1669134D01*
X18885877Y-1670339D01*
X18893560Y-1672010D01*
X19119164Y-1672010D01*
X19126609Y-1671568D01*
X19140087Y-1669965D01*
X19158107Y-1665012D01*
X19242613Y-1627477D01*
X19261461Y-1614523D01*
X19325245Y-1550627D01*
X19333343Y-1538801D01*
X19388334Y-1493895D01*
X19458873Y-1485849D01*
X19507306Y-1505223D01*
X19583499Y-1556134D01*
X19657733Y-1570900D01*
X20032739Y-1570900D01*
X20407866Y-1570899D01*
X20445207Y-1563472D01*
X20469926Y-1558556D01*
X20469928Y-1558555D01*
X20482101Y-1556134D01*
X20492421Y-1549239D01*
X20492422Y-1549238D01*
X20512798Y-1535623D01*
X20580551Y-1514408D01*
X20652802Y-1535623D01*
X20673179Y-1549239D01*
X20673182Y-1549240D01*
X20683499Y-1556134D01*
X20757733Y-1570900D01*
X20828424Y-1570900D01*
X21448400Y-1570899D01*
X21516521Y-1590901D01*
X21563014Y-1644557D01*
X21574400Y-1696899D01*
X21574400Y-2203552D01*
X21574842Y-2210997D01*
X21576445Y-2224475D01*
X21581398Y-2242495D01*
X21618933Y-2327001D01*
X21631887Y-2345849D01*
X21695783Y-2409633D01*
X21714653Y-2422554D01*
X21799201Y-2459932D01*
X21817278Y-2464860D01*
X21830275Y-2466376D01*
X21837576Y-2466800D01*
X22358685Y-2466800D01*
X22373924Y-2462325D01*
X22375129Y-2460935D01*
X22376800Y-2453252D01*
X22376800Y-725315D01*
X22372325Y-710076D01*
X22370935Y-708871D01*
X22363252Y-707200D01*
X21862301Y-707200D01*
X21794180Y-687198D01*
X21747687Y-633542D01*
X21737299Y-595004D01*
X21737299Y-591334D01*
X21733194Y-570693D01*
X21724956Y-529274D01*
X21724955Y-529272D01*
X21722534Y-517099D01*
X21708226Y-495685D01*
X21673177Y-443232D01*
X21666284Y-432916D01*
X21595696Y-385750D01*
X21550170Y-331273D01*
X21539700Y-280986D01*
X21539700Y-240353D01*
X21532746Y-218950D01*
X21528132Y-199730D01*
X21526161Y-187290D01*
X21526160Y-187287D01*
X21524609Y-177494D01*
X21514390Y-157438D01*
X21506825Y-139175D01*
X21505103Y-133874D01*
X21499871Y-117770D01*
X21500688Y-117504D01*
X21492236Y-90284D01*
X21475582Y36221D01*
X21475581Y36223D01*
X21474504Y44407D01*
X21467810Y60567D01*
X21453638Y94783D01*
X21446049Y165373D01*
X21477828Y228860D01*
X21545468Y266580D01*
X21551132Y267706D01*
X21569926Y271444D01*
X21569928Y271445D01*
X21582101Y273866D01*
X21592421Y280761D01*
X21592422Y280762D01*
X21655968Y323223D01*
X21666284Y330116D01*
X21703713Y386132D01*
X21715639Y403980D01*
X21722534Y414299D01*
X21737300Y488533D01*
X21737299Y807501D01*
X21757301Y875620D01*
X21810956Y922113D01*
X21863299Y933500D01*
X22660080Y933501D01*
X23204266Y933501D01*
X23240018Y940612D01*
X23266326Y945844D01*
X23266328Y945845D01*
X23278501Y948266D01*
X23288821Y955161D01*
X23288822Y955162D01*
X23327429Y980959D01*
X23395181Y1002174D01*
X23463648Y983391D01*
X23511092Y930574D01*
X23520945Y901099D01*
X23550620Y753929D01*
X23554520Y746275D01*
X23615692Y626217D01*
X23615694Y626214D01*
X23619592Y618564D01*
X23625405Y612243D01*
X23625406Y612241D01*
X23713374Y516578D01*
X23722426Y506734D01*
X23729721Y502211D01*
X23729722Y502210D01*
X23844244Y431203D01*
X23851544Y426677D01*
X23997435Y384291D01*
X24008207Y383500D01*
X24117257Y383500D01*
X24121503Y384082D01*
X24121509Y384082D01*
X24200254Y394869D01*
X24229718Y398905D01*
X24241446Y403980D01*
X24361264Y455831D01*
X24361265Y455831D01*
X24369146Y459242D01*
X24417109Y498081D01*
X24480539Y549445D01*
X24480541Y549447D01*
X24487213Y554850D01*
X24495137Y565999D01*
X24570244Y671685D01*
X24570244Y671686D01*
X24575220Y678687D01*
X24626682Y821629D01*
X24637809Y973145D01*
X24607780Y1122071D01*
X24574261Y1187856D01*
X24542708Y1249783D01*
X24542706Y1249786D01*
X24538808Y1257436D01*
X24530438Y1266539D01*
X24441784Y1362948D01*
X24441783Y1362949D01*
X24435974Y1369266D01*
X24415785Y1381784D01*
X24386222Y1400114D01*
X24338867Y1453010D01*
X24327628Y1523112D01*
X24356072Y1588161D01*
X24415170Y1627506D01*
X24452619Y1633200D01*
X24720752Y1633200D01*
X24728197Y1633642D01*
X24741671Y1635245D01*
X24751970Y1638075D01*
X24822956Y1636839D01*
X24882005Y1597421D01*
X24910369Y1532336D01*
X24911358Y1516579D01*
X24911358Y-1340601D01*
X24891356Y-1408722D01*
X24837700Y-1455215D01*
X24767426Y-1465319D01*
X24752215Y-1462164D01*
X24741122Y-1459140D01*
X24728125Y-1457624D01*
X24720824Y-1457200D01*
X24457676Y-1457200D01*
X24389555Y-1437198D01*
X24343062Y-1383542D01*
X24332958Y-1313268D01*
X24362452Y-1248688D01*
X24378382Y-1233279D01*
X24480539Y-1150555D01*
X24480541Y-1150553D01*
X24487213Y-1145150D01*
X24509975Y-1113122D01*
X24570244Y-1028315D01*
X24570244Y-1028314D01*
X24575220Y-1021313D01*
X24626682Y-878371D01*
X24637809Y-726855D01*
X24607780Y-577929D01*
X24590679Y-544367D01*
X24542708Y-450217D01*
X24542706Y-450214D01*
X24538808Y-442564D01*
X24523600Y-426025D01*
X24441784Y-337052D01*
X24441783Y-337051D01*
X24435974Y-330734D01*
X24413487Y-316791D01*
X24314156Y-255203D01*
X24314155Y-255202D01*
X24306856Y-250677D01*
X24160965Y-208291D01*
X24150193Y-207500D01*
X24041143Y-207500D01*
X24036897Y-208082D01*
X24036891Y-208082D01*
X23958146Y-218869D01*
X23928682Y-222905D01*
X23920798Y-226317D01*
X23920797Y-226317D01*
X23865439Y-250273D01*
X23789254Y-283242D01*
X23747824Y-316791D01*
X23677861Y-373445D01*
X23677859Y-373447D01*
X23671187Y-378850D01*
X23666213Y-385849D01*
X23666212Y-385850D01*
X23597720Y-482227D01*
X23583180Y-502687D01*
X23531718Y-645629D01*
X23531089Y-654192D01*
X23529302Y-662599D01*
X23526975Y-662104D01*
X23506427Y-716870D01*
X23449508Y-759305D01*
X23378683Y-764232D01*
X23355285Y-754113D01*
X23354385Y-756149D01*
X23259199Y-714068D01*
X23241122Y-709140D01*
X23228125Y-707624D01*
X23220824Y-707200D01*
X22699715Y-707200D01*
X22684476Y-711675D01*
X22683271Y-713065D01*
X22681600Y-720748D01*
X22681600Y-2448685D01*
X22686075Y-2463924D01*
X22687465Y-2465129D01*
X22695148Y-2466800D01*
X23048400Y-2466800D01*
X23116521Y-2486802D01*
X23163014Y-2540458D01*
X23174400Y-2592800D01*
X23174400Y-2703552D01*
X23174842Y-2710997D01*
X23176445Y-2724475D01*
X23181398Y-2742495D01*
X23218933Y-2827001D01*
X23231887Y-2845849D01*
X23295783Y-2909633D01*
X23314653Y-2922554D01*
X23399201Y-2959932D01*
X23417278Y-2964860D01*
X23430275Y-2966376D01*
X23437576Y-2966800D01*
X23908685Y-2966800D01*
X23923924Y-2962325D01*
X23925129Y-2960935D01*
X23926800Y-2953252D01*
X23926800Y-2185600D01*
X23946802Y-2117479D01*
X24000458Y-2070986D01*
X24052800Y-2059600D01*
X24105600Y-2059600D01*
X24173721Y-2079602D01*
X24220214Y-2133258D01*
X24231600Y-2185600D01*
X24231600Y-2948685D01*
X24236075Y-2963924D01*
X24237465Y-2965129D01*
X24258383Y-2969679D01*
X24257844Y-2972157D01*
X24307722Y-2986802D01*
X24354215Y-3040458D01*
X24364319Y-3110732D01*
X24335270Y-3174796D01*
X24268729Y-3252433D01*
X24247765Y-3276892D01*
X24240716Y-3284463D01*
X23965137Y-3557124D01*
X23957491Y-3564092D01*
X23660463Y-3813236D01*
X23652271Y-3819553D01*
X23335811Y-4043489D01*
X23327128Y-4049113D01*
X22993372Y-4246329D01*
X22984258Y-4251222D01*
X22635426Y-4420407D01*
X22625940Y-4424535D01*
X22264434Y-4564522D01*
X22254643Y-4567858D01*
X21882843Y-4677728D01*
X21872822Y-4680247D01*
X21493273Y-4759244D01*
X21483080Y-4760933D01*
X21290694Y-4784732D01*
X21098314Y-4808531D01*
X21088004Y-4809378D01*
X20942878Y-4815325D01*
X20731119Y-4824003D01*
X20717450Y-4822938D01*
X20707659Y-4822937D01*
X20695486Y-4820514D01*
X20683147Y-4822967D01*
X20682567Y-4823082D01*
X20658000Y-4825500D01*
X13411111Y-4825500D01*
X13342990Y-4805498D01*
X13296497Y-4751842D01*
X13286393Y-4681568D01*
X13315887Y-4616988D01*
X13324220Y-4608254D01*
X13378132Y-4556916D01*
X13378139Y-4556908D01*
X13383238Y-4552052D01*
X13405453Y-4518616D01*
X13473010Y-4416935D01*
X13473011Y-4416933D01*
X13476911Y-4411063D01*
X13537020Y-4252824D01*
X13550884Y-4154175D01*
X13560027Y-4089123D01*
X13560027Y-4089118D01*
X13560578Y-4085200D01*
X13560874Y-4064000D01*
X13549098Y-3959013D01*
X13542791Y-3902780D01*
X13542790Y-3902777D01*
X13542006Y-3895784D01*
X13515883Y-3820770D01*
X13512369Y-3749862D01*
X13547750Y-3688309D01*
X13610792Y-3655656D01*
X13651320Y-3654411D01*
X13707812Y-3661848D01*
X13716000Y-3662926D01*
X13724188Y-3661848D01*
X13853821Y-3644782D01*
X13853823Y-3644781D01*
X13862007Y-3643704D01*
X13998063Y-3587347D01*
X14114897Y-3497697D01*
X14204547Y-3380863D01*
X14260904Y-3244807D01*
X14262454Y-3233038D01*
X14279048Y-3106988D01*
X14280126Y-3098800D01*
X14273558Y-3048909D01*
X14261982Y-2960979D01*
X14261981Y-2960977D01*
X14260904Y-2952793D01*
X14204547Y-2816737D01*
X14114897Y-2699903D01*
X13998063Y-2610253D01*
X13862007Y-2553896D01*
X13853823Y-2552819D01*
X13853821Y-2552818D01*
X13724188Y-2535752D01*
X13716000Y-2534674D01*
X13569993Y-2553896D01*
X13562362Y-2557057D01*
X13529508Y-2570666D01*
X13458919Y-2578256D01*
X13392194Y-2543353D01*
X13375911Y-2527070D01*
X13368484Y-2518966D01*
X13349822Y-2496725D01*
X13349821Y-2496724D01*
X13342738Y-2488283D01*
X13308055Y-2468258D01*
X13298794Y-2462358D01*
X13274996Y-2445695D01*
X13274993Y-2445694D01*
X13265966Y-2439373D01*
X13255323Y-2436521D01*
X13251441Y-2434711D01*
X13247404Y-2433242D01*
X13237861Y-2427732D01*
X13227011Y-2425819D01*
X13227009Y-2425818D01*
X13225209Y-2425501D01*
X13222644Y-2424230D01*
X13216647Y-2422047D01*
X13216890Y-2421378D01*
X13161596Y-2393974D01*
X13136899Y-2356388D01*
X13134736Y-2357533D01*
X13130330Y-2349212D01*
X13127209Y-2340324D01*
X13046010Y-2230390D01*
X12936076Y-2149191D01*
X12807127Y-2103907D01*
X12799485Y-2103185D01*
X12799482Y-2103184D01*
X12784579Y-2101776D01*
X12775315Y-2100900D01*
X12446223Y-2100900D01*
X12116686Y-2100901D01*
X12113738Y-2101180D01*
X12113729Y-2101180D01*
X12092522Y-2103184D01*
X12092520Y-2103184D01*
X12084873Y-2103907D01*
X11955924Y-2149191D01*
X11948347Y-2154787D01*
X11948346Y-2154788D01*
X11933662Y-2165634D01*
X11929873Y-2168433D01*
X11927992Y-2169822D01*
X11861314Y-2194205D01*
X11792039Y-2178668D01*
X11776438Y-2168440D01*
X11744507Y-2143938D01*
X11608451Y-2087581D01*
X11600267Y-2086504D01*
X11600265Y-2086503D01*
X11470632Y-2069437D01*
X11462444Y-2068359D01*
X11316437Y-2087581D01*
X11308809Y-2090741D01*
X11308804Y-2090742D01*
X11307438Y-2091308D01*
X11304543Y-2091884D01*
X11300829Y-2092879D01*
X11300764Y-2092636D01*
X11259219Y-2100900D01*
X11201226Y-2100900D01*
X11133105Y-2080898D01*
X11086612Y-2027242D01*
X11076508Y-1956968D01*
X11106002Y-1892388D01*
X11112131Y-1885805D01*
X11201132Y-1796804D01*
X11263444Y-1762778D01*
X11290227Y-1759899D01*
X11505314Y-1759899D01*
X11508262Y-1759620D01*
X11508271Y-1759620D01*
X11529478Y-1757616D01*
X11529480Y-1757616D01*
X11537127Y-1756893D01*
X11546795Y-1753498D01*
X11591820Y-1737686D01*
X11666076Y-1711609D01*
X11685992Y-1696899D01*
X11736141Y-1659859D01*
X11802819Y-1635476D01*
X11872095Y-1651013D01*
X11885859Y-1659859D01*
X11936008Y-1696899D01*
X11955924Y-1711609D01*
X12084873Y-1756893D01*
X12092515Y-1757615D01*
X12092518Y-1757616D01*
X12107421Y-1759024D01*
X12116685Y-1759900D01*
X12445777Y-1759900D01*
X12775314Y-1759899D01*
X12778262Y-1759620D01*
X12778271Y-1759620D01*
X12799478Y-1757616D01*
X12799480Y-1757616D01*
X12807127Y-1756893D01*
X12816795Y-1753498D01*
X12861820Y-1737686D01*
X12936076Y-1711609D01*
X13046010Y-1630410D01*
X13127209Y-1520476D01*
X13172493Y-1391527D01*
X13175500Y-1359715D01*
X13175500Y-1162473D01*
X13195502Y-1094352D01*
X13201528Y-1085782D01*
X13282649Y-980063D01*
X13339006Y-844007D01*
X13340086Y-835809D01*
X13357150Y-706188D01*
X13358228Y-698000D01*
X13346212Y-606727D01*
X13340084Y-560179D01*
X13340083Y-560177D01*
X13339006Y-551993D01*
X13282649Y-415937D01*
X13192999Y-299103D01*
X13076165Y-209453D01*
X12940109Y-153096D01*
X12931925Y-152019D01*
X12931923Y-152018D01*
X12802290Y-134952D01*
X12794102Y-133874D01*
X12785914Y-134952D01*
X12656281Y-152018D01*
X12656279Y-152019D01*
X12648095Y-153096D01*
X12512039Y-209453D01*
X12395205Y-299103D01*
X12390179Y-305653D01*
X12316552Y-401605D01*
X12259214Y-443472D01*
X12216590Y-450901D01*
X12116686Y-450901D01*
X12113738Y-451180D01*
X12113729Y-451180D01*
X12092522Y-453184D01*
X12092520Y-453184D01*
X12084873Y-453907D01*
X11955924Y-499191D01*
X11948345Y-504789D01*
X11885859Y-550941D01*
X11819181Y-575324D01*
X11749905Y-559787D01*
X11736141Y-550941D01*
X11673655Y-504789D01*
X11666076Y-499191D01*
X11537127Y-453907D01*
X11529485Y-453185D01*
X11529482Y-453184D01*
X11514579Y-451776D01*
X11505315Y-450900D01*
X11176223Y-450900D01*
X10846686Y-450901D01*
X10843738Y-451180D01*
X10843729Y-451180D01*
X10822522Y-453184D01*
X10822520Y-453184D01*
X10814873Y-453907D01*
X10685924Y-499191D01*
X10683913Y-500677D01*
X10617930Y-514144D01*
X10552353Y-488953D01*
X10526973Y-469688D01*
X10512134Y-461327D01*
X10392693Y-414037D01*
X10377122Y-410083D01*
X10302525Y-401056D01*
X10294971Y-400600D01*
X10178115Y-400600D01*
X10162876Y-405075D01*
X10161671Y-406465D01*
X10160000Y-414148D01*
X10160000Y-1181800D01*
X10139998Y-1249921D01*
X10086342Y-1296414D01*
X10034000Y-1307800D01*
X8026715Y-1307800D01*
X8011476Y-1312275D01*
X8010271Y-1313665D01*
X8008600Y-1321348D01*
X8008600Y-1417771D01*
X8009056Y-1425325D01*
X8018083Y-1499922D01*
X8022037Y-1515493D01*
X8069327Y-1634934D01*
X8077689Y-1649773D01*
X8155061Y-1751707D01*
X8167093Y-1763739D01*
X8269026Y-1841111D01*
X8285043Y-1850136D01*
X8334572Y-1901003D01*
X8348738Y-1970572D01*
X8323044Y-2036756D01*
X8298756Y-2060736D01*
X8237757Y-2106453D01*
X8195856Y-2137856D01*
X8190477Y-2145033D01*
X8118865Y-2240583D01*
X8118863Y-2240586D01*
X8113483Y-2247765D01*
X8110333Y-2256169D01*
X8110332Y-2256170D01*
X8068172Y-2368636D01*
X8065270Y-2376376D01*
X8058900Y-2435011D01*
X8058901Y-2699903D01*
X8058901Y-2913826D01*
X8038899Y-2981947D01*
X8021996Y-3002921D01*
X7491691Y-3533226D01*
X7429379Y-3567252D01*
X7358564Y-3562187D01*
X7301728Y-3519640D01*
X7297021Y-3510238D01*
X7287135Y-3501671D01*
X7279452Y-3500000D01*
X6581315Y-3500000D01*
X6562061Y-3505654D01*
X6509088Y-3539696D01*
X6473591Y-3544800D01*
X6389200Y-3544800D01*
X6321079Y-3524798D01*
X6274586Y-3471142D01*
X6263200Y-3418800D01*
X6263200Y-3080500D01*
X6283202Y-3012379D01*
X6336858Y-2965886D01*
X6389200Y-2954500D01*
X6998961Y-2954499D01*
X7013266Y-2954499D01*
X7087501Y-2939734D01*
X7097821Y-2932839D01*
X7097822Y-2932838D01*
X7115186Y-2921236D01*
X7185189Y-2900000D01*
X7274885Y-2900000D01*
X7290124Y-2895525D01*
X7291329Y-2894135D01*
X7293000Y-2886452D01*
X7293000Y-2858448D01*
X7292558Y-2851003D01*
X7290955Y-2837525D01*
X7286002Y-2819505D01*
X7253548Y-2746439D01*
X7242700Y-2695291D01*
X7242699Y-2425075D01*
X7242700Y-2425059D01*
X7242699Y-2081123D01*
X7242699Y-2074934D01*
X7232683Y-2024576D01*
X7232684Y-1975421D01*
X7242700Y-1925067D01*
X7242699Y-1574934D01*
X7232683Y-1524576D01*
X7232684Y-1475421D01*
X7242700Y-1425067D01*
X7242699Y-1181242D01*
X7262701Y-1113122D01*
X7314163Y-1068171D01*
X7322166Y-1066027D01*
X7331195Y-1059705D01*
X7331197Y-1059704D01*
X7354994Y-1043042D01*
X7364255Y-1037142D01*
X7398938Y-1017117D01*
X7413888Y-999301D01*
X7424680Y-986439D01*
X7426104Y-984885D01*
X8008600Y-984885D01*
X8013075Y-1000124D01*
X8014465Y-1001329D01*
X8022148Y-1003000D01*
X8617885Y-1003000D01*
X8633124Y-998525D01*
X8634329Y-997135D01*
X8636000Y-989452D01*
X8636000Y-984885D01*
X8940800Y-984885D01*
X8945275Y-1000124D01*
X8946665Y-1001329D01*
X8954348Y-1003000D01*
X9837085Y-1003000D01*
X9852324Y-998525D01*
X9853529Y-997135D01*
X9855200Y-989452D01*
X9855200Y-418715D01*
X9850725Y-403476D01*
X9849335Y-402271D01*
X9841652Y-400600D01*
X9720229Y-400600D01*
X9712675Y-401056D01*
X9638078Y-410083D01*
X9622507Y-414037D01*
X9503066Y-461327D01*
X9488226Y-469689D01*
X9474181Y-480350D01*
X9407828Y-505605D01*
X9338355Y-490978D01*
X9321819Y-480350D01*
X9307774Y-469689D01*
X9292934Y-461327D01*
X9173493Y-414037D01*
X9157922Y-410083D01*
X9083325Y-401056D01*
X9075771Y-400600D01*
X8958915Y-400600D01*
X8943676Y-405075D01*
X8942471Y-406465D01*
X8940800Y-414148D01*
X8940800Y-984885D01*
X8636000Y-984885D01*
X8636000Y-418715D01*
X8631525Y-403476D01*
X8630135Y-402271D01*
X8622452Y-400600D01*
X8501029Y-400600D01*
X8493475Y-401056D01*
X8418878Y-410083D01*
X8403307Y-414037D01*
X8283866Y-461327D01*
X8269027Y-469689D01*
X8167093Y-547061D01*
X8155061Y-559093D01*
X8077689Y-661027D01*
X8069327Y-675866D01*
X8022037Y-795307D01*
X8018083Y-810878D01*
X8009056Y-885475D01*
X8008600Y-893029D01*
X8008600Y-984885D01*
X7426104Y-984885D01*
X7432106Y-978335D01*
X7594330Y-816111D01*
X7602434Y-808684D01*
X7624675Y-790022D01*
X7624676Y-790021D01*
X7633117Y-782938D01*
X7653142Y-748255D01*
X7659042Y-738994D01*
X7675705Y-715196D01*
X7675706Y-715193D01*
X7682027Y-706166D01*
X7684878Y-695525D01*
X7686688Y-691644D01*
X7688158Y-687604D01*
X7693668Y-678061D01*
X7700624Y-638613D01*
X7703003Y-627882D01*
X7710518Y-599837D01*
X7710518Y-599832D01*
X7713370Y-589190D01*
X7709879Y-549285D01*
X7709400Y-538304D01*
X7709400Y84930D01*
X7709879Y95912D01*
X7712410Y124837D01*
X7712410Y124839D01*
X7713370Y135813D01*
X7710518Y146456D01*
X7710518Y146459D01*
X7703005Y174499D01*
X7700627Y185226D01*
X7695584Y213825D01*
X7695581Y213832D01*
X7693668Y224683D01*
X7688158Y234227D01*
X7686698Y238237D01*
X7684880Y242135D01*
X7682026Y252788D01*
X7659052Y285600D01*
X7653148Y294866D01*
X7638631Y320010D01*
X7638630Y320011D01*
X7633117Y329560D01*
X7620161Y340432D01*
X7602439Y355302D01*
X7594335Y362728D01*
X7478733Y478330D01*
X7471306Y486434D01*
X7452644Y508675D01*
X7452643Y508676D01*
X7445560Y517117D01*
X7410877Y537142D01*
X7401616Y543042D01*
X7377818Y559705D01*
X7377815Y559706D01*
X7368788Y566027D01*
X7358144Y568879D01*
X7354269Y570686D01*
X7350230Y572156D01*
X7340683Y577668D01*
X7329826Y579582D01*
X7325607Y581118D01*
X7268435Y623212D01*
X7243096Y689533D01*
X7242700Y699519D01*
X7242699Y810605D01*
X7262700Y878726D01*
X7312956Y922273D01*
X7312907Y922358D01*
X7313347Y922612D01*
X7313349Y922614D01*
X7321538Y927342D01*
X7325616Y929012D01*
X7326454Y929317D01*
X7330323Y931121D01*
X7340966Y933973D01*
X7349993Y940294D01*
X7349996Y940295D01*
X7373794Y956958D01*
X7383055Y962858D01*
X7417738Y982883D01*
X7427958Y995062D01*
X7443475Y1013555D01*
X7450900Y1021659D01*
X7651524Y1222283D01*
X7868422Y1439182D01*
X7930735Y1473207D01*
X7957518Y1476087D01*
X7970653Y1476087D01*
X7981635Y1475608D01*
X8021536Y1472117D01*
X8024386Y1472881D01*
X8089113Y1459871D01*
X8131840Y1423198D01*
X8139418Y1412939D01*
X8163797Y1346261D01*
X8148256Y1276986D01*
X8138894Y1262529D01*
X8125483Y1244635D01*
X8122333Y1236232D01*
X8080591Y1124882D01*
X8077270Y1116024D01*
X8076417Y1108174D01*
X8076417Y1108173D01*
X8075209Y1097052D01*
X8070900Y1057389D01*
X8070901Y466612D01*
X8071270Y463218D01*
X8071270Y463212D01*
X8075239Y426677D01*
X8077270Y407976D01*
X8095691Y358838D01*
X8120059Y293835D01*
X8125483Y279365D01*
X8130863Y272186D01*
X8130865Y272183D01*
X8192560Y189865D01*
X8207856Y169456D01*
X8215033Y164077D01*
X8310583Y92465D01*
X8310586Y92463D01*
X8317765Y87083D01*
X8326169Y83933D01*
X8326170Y83932D01*
X8438981Y41642D01*
X8438982Y41642D01*
X8446376Y38870D01*
X8454226Y38017D01*
X8454227Y38017D01*
X8501605Y32870D01*
X8505011Y32500D01*
X8775320Y32500D01*
X9045788Y32501D01*
X9049182Y32870D01*
X9049188Y32870D01*
X9096566Y38016D01*
X9096570Y38017D01*
X9104424Y38870D01*
X9218353Y81579D01*
X9224630Y83932D01*
X9224631Y83933D01*
X9233035Y87083D01*
X9240214Y92463D01*
X9240217Y92465D01*
X9335767Y164077D01*
X9342944Y169456D01*
X9372050Y208291D01*
X9420064Y272356D01*
X9476924Y314870D01*
X9547742Y319895D01*
X9610035Y285836D01*
X9630664Y258643D01*
X9639689Y242626D01*
X9717061Y140693D01*
X9729093Y128661D01*
X9831027Y51289D01*
X9845866Y42927D01*
X9965307Y-4363D01*
X9980878Y-8317D01*
X10055475Y-17344D01*
X10063029Y-17800D01*
X10154885Y-17800D01*
X10170124Y-13325D01*
X10171329Y-11935D01*
X10173000Y-4252D01*
X10173000Y315D01*
X10477800Y315D01*
X10482275Y-14924D01*
X10483665Y-16129D01*
X10491348Y-17800D01*
X10587771Y-17800D01*
X10595325Y-17344D01*
X10669922Y-8317D01*
X10685493Y-4363D01*
X10804934Y42927D01*
X10819773Y51289D01*
X10921707Y128661D01*
X10933739Y140693D01*
X11011111Y242627D01*
X11019473Y257466D01*
X11066763Y376907D01*
X11070717Y392478D01*
X11079744Y467075D01*
X11080200Y474629D01*
X11080200Y591485D01*
X11075725Y606724D01*
X11074335Y607929D01*
X11066652Y609600D01*
X10495915Y609600D01*
X10480676Y605125D01*
X10479471Y603735D01*
X10477800Y596052D01*
X10477800Y315D01*
X10173000Y315D01*
X10173000Y1484895D01*
X10193002Y1553016D01*
X10203775Y1567407D01*
X10221329Y1587665D01*
X10223000Y1595348D01*
X10223000Y2311685D01*
X10218525Y2326924D01*
X10212745Y2331933D01*
X10159106Y2361221D01*
X10125080Y2423533D01*
X10122200Y2450318D01*
X10122200Y3911285D01*
X10117725Y3926524D01*
X10116335Y3927729D01*
X10108652Y3929400D01*
X10012229Y3929400D01*
X10004675Y3928944D01*
X9930078Y3919917D01*
X9914507Y3915963D01*
X9795066Y3868673D01*
X9780227Y3860311D01*
X9678293Y3782939D01*
X9666261Y3770907D01*
X9588889Y3668974D01*
X9579864Y3652957D01*
X9528997Y3603428D01*
X9459428Y3589262D01*
X9393244Y3614956D01*
X9369264Y3639244D01*
X9297523Y3734967D01*
X9292144Y3742144D01*
X9253766Y3770907D01*
X9189417Y3819135D01*
X9189414Y3819137D01*
X9182235Y3824517D01*
X9164005Y3831351D01*
X9061019Y3869958D01*
X9061018Y3869958D01*
X9053624Y3872730D01*
X9045774Y3873583D01*
X9045773Y3873583D01*
X8998386Y3878731D01*
X8998385Y3878731D01*
X8994989Y3879100D01*
X8724680Y3879100D01*
X8454212Y3879099D01*
X8450818Y3878730D01*
X8450812Y3878730D01*
X8403434Y3873584D01*
X8403430Y3873583D01*
X8395576Y3872730D01*
X8266965Y3824517D01*
X8259786Y3819137D01*
X8259783Y3819135D01*
X8195434Y3770907D01*
X8157056Y3742144D01*
X8151677Y3734967D01*
X8080065Y3639417D01*
X8080063Y3639414D01*
X8074683Y3632235D01*
X8071533Y3623831D01*
X8071532Y3623830D01*
X8030810Y3515200D01*
X8026470Y3503624D01*
X8025617Y3495774D01*
X8025617Y3495773D01*
X8021254Y3455609D01*
X8020100Y3444989D01*
X8020100Y3229728D01*
X8000098Y3161607D01*
X7983196Y3140633D01*
X7857395Y3014831D01*
X7795083Y2980806D01*
X7760549Y2979366D01*
X7760549Y2978946D01*
X7752290Y2978946D01*
X7744102Y2980024D01*
X7720870Y2976965D01*
X7606281Y2961880D01*
X7606279Y2961879D01*
X7598095Y2960802D01*
X7462039Y2904445D01*
X7447075Y2892963D01*
X7380858Y2867362D01*
X7311309Y2881626D01*
X7287859Y2897701D01*
X7287134Y2898329D01*
X7279452Y2900000D01*
X7185189Y2900000D01*
X7115186Y2921236D01*
X7097821Y2932839D01*
X7097818Y2932840D01*
X7087501Y2939734D01*
X7075332Y2942155D01*
X7075331Y2942155D01*
X7019335Y2953293D01*
X7013267Y2954500D01*
X6998967Y2954500D01*
X6389199Y2954499D01*
X6321079Y2974501D01*
X6274586Y3028157D01*
X6263200Y3080499D01*
X6263200Y3418800D01*
X6283202Y3486921D01*
X6336858Y3533414D01*
X6389200Y3544800D01*
X6472296Y3544800D01*
X6540417Y3524798D01*
X6554808Y3514025D01*
X6569065Y3501671D01*
X6576748Y3500000D01*
X7274885Y3500000D01*
X7290124Y3504475D01*
X7291329Y3505865D01*
X7293000Y3513548D01*
X7293000Y3541552D01*
X7292558Y3548997D01*
X7290955Y3562475D01*
X7286002Y3580495D01*
X7248467Y3665001D01*
X7235513Y3683849D01*
X7171619Y3747631D01*
X7144156Y3766436D01*
X7099250Y3821427D01*
X7091202Y3891966D01*
X7108957Y3937913D01*
X7122348Y3959015D01*
X7128491Y3971610D01*
X7184329Y4128419D01*
X7187528Y4142058D01*
X7188429Y4149611D01*
X7186002Y4164018D01*
X7173234Y4167600D01*
X6018715Y4167600D01*
X6003476Y4163125D01*
X6002271Y4161735D01*
X6000600Y4154052D01*
X6000600Y3601200D01*
X5980598Y3533079D01*
X5926942Y3486586D01*
X5874600Y3475200D01*
X5821800Y3475200D01*
X5753679Y3495202D01*
X5707186Y3548858D01*
X5695800Y3601200D01*
X5695800Y4149485D01*
X5691325Y4164724D01*
X5689935Y4165929D01*
X5682252Y4167600D01*
X4523055Y4167600D01*
X4508764Y4163404D01*
X4506818Y4151486D01*
X4509471Y4139419D01*
X4563118Y3981832D01*
X4569079Y3969166D01*
X4656306Y3827380D01*
X4664925Y3816348D01*
X4781400Y3697408D01*
X4792241Y3688566D01*
X4932170Y3598388D01*
X4944717Y3592160D01*
X4977570Y3580202D01*
X5034741Y3538107D01*
X5060079Y3471786D01*
X5045538Y3402294D01*
X5011179Y3361838D01*
X4954656Y3318466D01*
X4934896Y3303304D01*
X4842008Y3182250D01*
X4783616Y3041280D01*
X4782538Y3033092D01*
X4780415Y3016967D01*
X4763700Y2890000D01*
X4764778Y2881812D01*
X4780613Y2761534D01*
X4783616Y2738720D01*
X4786776Y2731091D01*
X4805607Y2685629D01*
X4813196Y2615039D01*
X4781417Y2551552D01*
X4720359Y2515325D01*
X4689198Y2511411D01*
X3868944Y2511411D01*
X3859511Y2508346D01*
X3847542Y2504457D01*
X3828316Y2499841D01*
X3806084Y2496320D01*
X3797251Y2491819D01*
X3797250Y2491819D01*
X3786032Y2486103D01*
X3767770Y2478539D01*
X3755793Y2474647D01*
X3755791Y2474646D01*
X3746358Y2471581D01*
X3738333Y2465750D01*
X3728149Y2458351D01*
X3711294Y2448021D01*
X3691239Y2437803D01*
X3425908Y2172472D01*
X3421405Y2163634D01*
X3415692Y2152421D01*
X3405360Y2135562D01*
X3392130Y2117353D01*
X3389065Y2107920D01*
X3389064Y2107918D01*
X3385172Y2095941D01*
X3377608Y2077680D01*
X3367391Y2057627D01*
X3365840Y2047834D01*
X3363870Y2035395D01*
X3359254Y2016169D01*
X3352300Y1994767D01*
X3352300Y1345638D01*
X3332298Y1277517D01*
X3326262Y1268934D01*
X3321011Y1262091D01*
X3270653Y1196463D01*
X3214296Y1060407D01*
X3213219Y1052223D01*
X3213218Y1052221D01*
X3199214Y945844D01*
X3195074Y914400D01*
X3196152Y906212D01*
X3209148Y807500D01*
X3214296Y768393D01*
X3270653Y632337D01*
X3360303Y515503D01*
X3477137Y425853D01*
X3613193Y369496D01*
X3621377Y368419D01*
X3621379Y368418D01*
X3751012Y351352D01*
X3759200Y350274D01*
X3767388Y351352D01*
X3897021Y368418D01*
X3897023Y368419D01*
X3905207Y369496D01*
X3912836Y372656D01*
X4003582Y410244D01*
X4074172Y417833D01*
X4137659Y386054D01*
X4173886Y324996D01*
X4177800Y293835D01*
X4177800Y122092D01*
X4177321Y111110D01*
X4175422Y89400D01*
X4173830Y71209D01*
X4184200Y32506D01*
X4186576Y21788D01*
X4191168Y-4252D01*
X4193532Y-17661D01*
X4199042Y-27204D01*
X4200511Y-31241D01*
X4202321Y-35123D01*
X4205173Y-45766D01*
X4211494Y-54793D01*
X4211495Y-54796D01*
X4228158Y-78594D01*
X4234058Y-87855D01*
X4254083Y-122538D01*
X4262530Y-129626D01*
X4284761Y-148280D01*
X4292865Y-155706D01*
X4615489Y-478330D01*
X4622916Y-486434D01*
X4648662Y-517117D01*
X4658211Y-522630D01*
X4658212Y-522631D01*
X4683348Y-537144D01*
X4692616Y-543048D01*
X4716403Y-559703D01*
X4716405Y-559704D01*
X4725434Y-566026D01*
X4736079Y-568878D01*
X4739971Y-570693D01*
X4743995Y-572158D01*
X4753539Y-577668D01*
X4764393Y-579582D01*
X4764396Y-579583D01*
X4793003Y-584628D01*
X4803730Y-587006D01*
X4813964Y-589748D01*
X4874587Y-626698D01*
X4905610Y-690558D01*
X4897183Y-761053D01*
X4851981Y-815801D01*
X4829573Y-827864D01*
X4703964Y-879893D01*
X4703961Y-879895D01*
X4696337Y-883053D01*
X4579503Y-972703D01*
X4489853Y-1089537D01*
X4433496Y-1225593D01*
X4432419Y-1233777D01*
X4432418Y-1233779D01*
X4430293Y-1249921D01*
X4414274Y-1371600D01*
X4418797Y-1405952D01*
X4419126Y-1408453D01*
X4408187Y-1478602D01*
X4361059Y-1531701D01*
X4294204Y-1550900D01*
X4043438Y-1550900D01*
X3975317Y-1530898D01*
X3943478Y-1501607D01*
X3941456Y-1498972D01*
X3936430Y-1492422D01*
X3819596Y-1402772D01*
X3683540Y-1346415D01*
X3675356Y-1345338D01*
X3675354Y-1345337D01*
X3545721Y-1328271D01*
X3537533Y-1327193D01*
X3529345Y-1328271D01*
X3399712Y-1345337D01*
X3399710Y-1345338D01*
X3391526Y-1346415D01*
X3255470Y-1402772D01*
X3138636Y-1492422D01*
X3048986Y-1609256D01*
X2992629Y-1745312D01*
X2991552Y-1753496D01*
X2991551Y-1753498D01*
X2990203Y-1763739D01*
X2973407Y-1891319D01*
X2974485Y-1899507D01*
X2990951Y-2024578D01*
X2992629Y-2037326D01*
X3048986Y-2173382D01*
X3138636Y-2290216D01*
X3255470Y-2379866D01*
X3391526Y-2436223D01*
X3399710Y-2437300D01*
X3399712Y-2437301D01*
X3529345Y-2454367D01*
X3537533Y-2455445D01*
X3545721Y-2454367D01*
X3675354Y-2437301D01*
X3675356Y-2437300D01*
X3683540Y-2436223D01*
X3819596Y-2379866D01*
X3864626Y-2345313D01*
X3876844Y-2335938D01*
X3943064Y-2310337D01*
X3953548Y-2309900D01*
X4451428Y-2309900D01*
X4519549Y-2329902D01*
X4529426Y-2336945D01*
X4538066Y-2343756D01*
X4546700Y-2346788D01*
X4554153Y-2352114D01*
X4603269Y-2366803D01*
X4608911Y-2368636D01*
X4626578Y-2374840D01*
X4657270Y-2385618D01*
X4662835Y-2386100D01*
X4665543Y-2386100D01*
X4668177Y-2386214D01*
X4668275Y-2386243D01*
X4668268Y-2386407D01*
X4668972Y-2386451D01*
X4675197Y-2388313D01*
X4729054Y-2386197D01*
X4734001Y-2386100D01*
X4748910Y-2386100D01*
X4817031Y-2406102D01*
X4863524Y-2459758D01*
X4873628Y-2530032D01*
X4850932Y-2583911D01*
X4851165Y-2584045D01*
X4850096Y-2585897D01*
X4848870Y-2588807D01*
X4842008Y-2597750D01*
X4801605Y-2695291D01*
X4789517Y-2724475D01*
X4783616Y-2738720D01*
X4763700Y-2890000D01*
X4783616Y-3041280D01*
X4842008Y-3182250D01*
X4934896Y-3303304D01*
X4941442Y-3308327D01*
X4941446Y-3308331D01*
X5010453Y-3361282D01*
X5052320Y-3418620D01*
X5056542Y-3489491D01*
X5021778Y-3551393D01*
X4975187Y-3580235D01*
X4954912Y-3587296D01*
X4942281Y-3593348D01*
X4801111Y-3681560D01*
X4790139Y-3690257D01*
X4672017Y-3807556D01*
X4663245Y-3818467D01*
X4574053Y-3959013D01*
X4567909Y-3971610D01*
X4512071Y-4128419D01*
X4508872Y-4142058D01*
X4507971Y-4149611D01*
X4510398Y-4164018D01*
X4523166Y-4167600D01*
X5677685Y-4167600D01*
X5692924Y-4163125D01*
X5694129Y-4161735D01*
X5695800Y-4154052D01*
X5695800Y-3601200D01*
X5715802Y-3533079D01*
X5769458Y-3486586D01*
X5821800Y-3475200D01*
X5874600Y-3475200D01*
X5942721Y-3495202D01*
X5989214Y-3548858D01*
X6000600Y-3601200D01*
X6000600Y-4346400D01*
X5980598Y-4414521D01*
X5926942Y-4461014D01*
X5874600Y-4472400D01*
X4523055Y-4472400D01*
X4508764Y-4476596D01*
X4506818Y-4488514D01*
X4509471Y-4500581D01*
X4563366Y-4658894D01*
X4566384Y-4729827D01*
X4530574Y-4791131D01*
X4467306Y-4823342D01*
X4444088Y-4825500D01*
X4050676Y-4825500D01*
X4026097Y-4823079D01*
X4013200Y-4820514D01*
X4001027Y-4822936D01*
X3990153Y-4822936D01*
X3977496Y-4823897D01*
X3654214Y-4809378D01*
X3586303Y-4806328D01*
X3575043Y-4805315D01*
X3157178Y-4748711D01*
X3146054Y-4746692D01*
X2844567Y-4677880D01*
X2782605Y-4643221D01*
X2749217Y-4580565D01*
X2753501Y-4518616D01*
X2752722Y-4518433D01*
X2753844Y-4513649D01*
X2753905Y-4512770D01*
X2754331Y-4511574D01*
X2757528Y-4497942D01*
X2758429Y-4490389D01*
X2756002Y-4475982D01*
X2743234Y-4472400D01*
X2237220Y-4472400D01*
X2187699Y-4462261D01*
X2064167Y-4409461D01*
X2009389Y-4364295D01*
X1987726Y-4296684D01*
X2006054Y-4228094D01*
X2058556Y-4180302D01*
X2113688Y-4167600D01*
X2743345Y-4167600D01*
X2757636Y-4163404D01*
X2759582Y-4151486D01*
X2756929Y-4139419D01*
X2703282Y-3981832D01*
X2697321Y-3969166D01*
X2610094Y-3827380D01*
X2601475Y-3816348D01*
X2485000Y-3697408D01*
X2474159Y-3688566D01*
X2334230Y-3598388D01*
X2321681Y-3592159D01*
X2165263Y-3535227D01*
X2151648Y-3531934D01*
X2023120Y-3515697D01*
X2015230Y-3515200D01*
X1838715Y-3515200D01*
X1823476Y-3519675D01*
X1822271Y-3521065D01*
X1820600Y-3528748D01*
X1820600Y-4083520D01*
X1800598Y-4151641D01*
X1746942Y-4198134D01*
X1676668Y-4208238D01*
X1634895Y-4194476D01*
X1582091Y-4166061D01*
X1531584Y-4116168D01*
X1515800Y-4055107D01*
X1515800Y-3533315D01*
X1511325Y-3518076D01*
X1509935Y-3516871D01*
X1502252Y-3515200D01*
X1326327Y-3515200D01*
X1319303Y-3515593D01*
X1195769Y-3529449D01*
X1182116Y-3532551D01*
X1024914Y-3587295D01*
X1012281Y-3593347D01*
X964451Y-3623235D01*
X896082Y-3642371D01*
X828221Y-3621506D01*
X810607Y-3607453D01*
X795855Y-3593348D01*
X606994Y-3412779D01*
X529442Y-3338632D01*
X521629Y-3330460D01*
X244196Y-3012912D01*
X237147Y-3004073D01*
X-10710Y-2662926D01*
X-16938Y-2653491D01*
X-39769Y-2615279D01*
X-233214Y-2291507D01*
X-238567Y-2281559D01*
X-421523Y-1901645D01*
X-425966Y-1891249D01*
X-574136Y-1496454D01*
X-577630Y-1485702D01*
X-578942Y-1480946D01*
X-636243Y-1273323D01*
X-689809Y-1079231D01*
X-692325Y-1068208D01*
X-745826Y-773394D01*
X-767617Y-653311D01*
X-769135Y-642112D01*
X-772658Y-602968D01*
X-758843Y-533329D01*
X-709571Y-482214D01*
X-640485Y-465851D01*
X-573521Y-489436D01*
X-556529Y-504147D01*
X-486313Y-576857D01*
X-486308Y-576861D01*
X-481414Y-581929D01*
X-475517Y-585788D01*
X-346423Y-670266D01*
X-346419Y-670268D01*
X-340525Y-674125D01*
X-182711Y-732815D01*
X-175730Y-733746D01*
X-175728Y-733747D01*
X-136401Y-738994D01*
X-15817Y-755083D01*
X-8806Y-754445D01*
X-8802Y-754445D01*
X144843Y-740462D01*
X151864Y-739823D01*
X158566Y-737645D01*
X158568Y-737645D01*
X305298Y-689970D01*
X305301Y-689969D01*
X311997Y-687793D01*
X456623Y-601578D01*
X461717Y-596727D01*
X461721Y-596724D01*
X573454Y-490322D01*
X573455Y-490320D01*
X578554Y-485465D01*
X589037Y-469688D01*
X667836Y-351085D01*
X671731Y-345223D01*
X679415Y-324996D01*
X715151Y-230918D01*
X731521Y-187823D01*
X746873Y-78594D01*
X754404Y-25010D01*
X754404Y-25006D01*
X754955Y-21088D01*
X755249Y0D01*
X749412Y52036D01*
X737266Y160328D01*
X737265Y160331D01*
X736481Y167324D01*
X681108Y326332D01*
X591884Y469121D01*
X586920Y474120D01*
X478205Y583597D01*
X478201Y583600D01*
X473242Y588594D01*
X459414Y597370D01*
X404314Y632337D01*
X331079Y678813D01*
X172462Y735294D01*
X165474Y736127D01*
X165471Y736128D01*
X67286Y747836D01*
X5273Y755231D01*
X-1730Y754495D01*
X-1731Y754495D01*
X-47288Y749707D01*
X-162179Y737631D01*
X-168845Y735362D01*
X-168848Y735361D01*
X-314902Y685640D01*
X-314905Y685639D01*
X-321569Y683370D01*
X-327564Y679682D01*
X-327568Y679680D01*
X-458979Y598835D01*
X-458981Y598833D01*
X-464978Y595144D01*
X-558869Y503199D01*
X-621532Y469829D01*
X-692291Y475635D01*
X-748678Y518774D01*
X-772791Y585550D01*
X-772518Y604516D01*
X-769135Y642110D01*
X-767617Y653315D01*
X-763675Y675034D01*
X-718274Y925219D01*
X-692325Y1068208D01*
X-689809Y1079231D01*
X-602488Y1395630D01*
X-577629Y1485705D01*
X-574136Y1496454D01*
X-425966Y1891249D01*
X-421523Y1901645D01*
X-238567Y2281559D01*
X-233214Y2291507D01*
X-16937Y2653492D01*
X-10710Y2662926D01*
X237147Y3004073D01*
X244196Y3012912D01*
X521629Y3330460D01*
X529442Y3338632D01*
X774726Y3573147D01*
X810261Y3607122D01*
X873321Y3639740D01*
X944005Y3633088D01*
X965590Y3621961D01*
X1002165Y3598390D01*
X1014718Y3592159D01*
X1171137Y3535227D01*
X1184752Y3531934D01*
X1313280Y3515697D01*
X1321170Y3515200D01*
X1497685Y3515200D01*
X1512924Y3519675D01*
X1514129Y3521065D01*
X1515800Y3528748D01*
X1515800Y4055107D01*
X1535802Y4123228D01*
X1582091Y4166061D01*
X1634894Y4194475D01*
X1704358Y4209142D01*
X1770725Y4183924D01*
X1812923Y4126829D01*
X1820600Y4083520D01*
X1820600Y3533315D01*
X1825075Y3518076D01*
X1826465Y3516871D01*
X1834148Y3515200D01*
X2010073Y3515200D01*
X2017097Y3515593D01*
X2140631Y3529449D01*
X2154284Y3532551D01*
X2311486Y3587295D01*
X2324119Y3593348D01*
X2465289Y3681560D01*
X2476261Y3690257D01*
X2594383Y3807556D01*
X2603155Y3818467D01*
X2692347Y3959013D01*
X2698491Y3971610D01*
X2754329Y4128419D01*
X2757528Y4142058D01*
X2758429Y4149611D01*
X2756002Y4164018D01*
X2743234Y4167600D01*
X2113688Y4167600D01*
X2045567Y4187602D01*
X1999074Y4241258D01*
X1988970Y4311532D01*
X2018464Y4376112D01*
X2064167Y4409461D01*
X2187699Y4462261D01*
X2237220Y4472400D01*
X2743345Y4472400D01*
X2757636Y4476596D01*
X2759582Y4488514D01*
X2756928Y4500583D01*
X2752294Y4514195D01*
X2749275Y4585128D01*
X2785083Y4646432D01*
X2843533Y4677644D01*
X3012327Y4716170D01*
X3146056Y4746692D01*
X3157178Y4748711D01*
X3575043Y4805315D01*
X3586303Y4806328D01*
X3693896Y4811160D01*
X3977496Y4823897D01*
X3990153Y4822936D01*
X4001027Y4822936D01*
X4013200Y4820514D01*
X4026097Y4823079D01*
X4050676Y4825500D01*
X4445237Y4825500D01*
X4513358Y4805498D01*
G37*
G04 #@! TD.AperFunction*
G04 #@! TA.AperFunction,Conductor*
G36*
X20682565Y4823081D02*
G01*
X20695476Y4820514D01*
X20707648Y4822936D01*
X20717417Y4822937D01*
X20731249Y4824010D01*
X21090339Y4809050D01*
X21100788Y4808177D01*
X21487694Y4759543D01*
X21498032Y4757803D01*
X21843033Y4684827D01*
X21879525Y4677108D01*
X21889704Y4674508D01*
X22263158Y4562308D01*
X22273085Y4558868D01*
X22311125Y4543883D01*
X22635882Y4415950D01*
X22645477Y4411700D01*
X22972647Y4250145D01*
X22995122Y4239047D01*
X23004336Y4234008D01*
X23156368Y4142445D01*
X23338359Y4032838D01*
X23347125Y4027048D01*
X23451395Y3951742D01*
X23638864Y3816348D01*
X23663244Y3798740D01*
X23671494Y3792241D01*
X23752942Y3722390D01*
X23967484Y3538396D01*
X23975166Y3531230D01*
X24212627Y3290467D01*
X24246221Y3227921D01*
X24240668Y3157142D01*
X24235951Y3149255D01*
X24231600Y3129252D01*
X24231600Y2361600D01*
X24211598Y2293479D01*
X24157942Y2246986D01*
X24105600Y2235600D01*
X24052800Y2235600D01*
X23984679Y2255602D01*
X23938186Y2309258D01*
X23926800Y2361600D01*
X23926800Y3124685D01*
X23922325Y3139924D01*
X23920935Y3141129D01*
X23913252Y3142800D01*
X23437648Y3142800D01*
X23430203Y3142358D01*
X23416725Y3140755D01*
X23398705Y3135802D01*
X23314199Y3098267D01*
X23298772Y3087664D01*
X23231303Y3065564D01*
X23162596Y3083450D01*
X23127445Y3114798D01*
X23106497Y3142097D01*
X22989663Y3231747D01*
X22853607Y3288104D01*
X22845423Y3289181D01*
X22845421Y3289182D01*
X22715788Y3306248D01*
X22707600Y3307326D01*
X22699412Y3306248D01*
X22569779Y3289182D01*
X22569777Y3289181D01*
X22561593Y3288104D01*
X22425537Y3231747D01*
X22308703Y3142097D01*
X22219053Y3025263D01*
X22162696Y2889207D01*
X22161619Y2881023D01*
X22161618Y2881021D01*
X22150878Y2799440D01*
X22143474Y2743200D01*
X22144561Y2734946D01*
X22144552Y2734890D01*
X22144552Y2726754D01*
X22143283Y2726754D01*
X22133623Y2664799D01*
X22086496Y2611700D01*
X22019639Y2592499D01*
X21854134Y2592499D01*
X21818382Y2585388D01*
X21792074Y2580156D01*
X21792072Y2580155D01*
X21779899Y2577734D01*
X21769579Y2570839D01*
X21769578Y2570838D01*
X21715893Y2534966D01*
X21695716Y2521484D01*
X21639466Y2437301D01*
X21624700Y2363067D01*
X21624701Y1896542D01*
X21624701Y1594100D01*
X21604699Y1525979D01*
X21551043Y1479486D01*
X21498701Y1468100D01*
X21060083Y1468099D01*
X20757734Y1468099D01*
X20683499Y1453334D01*
X20678589Y1450053D01*
X20612479Y1442946D01*
X20563666Y1462980D01*
X20547347Y1474154D01*
X20462799Y1511532D01*
X20444722Y1516460D01*
X20431725Y1517976D01*
X20424424Y1518400D01*
X20203315Y1518400D01*
X20188076Y1513925D01*
X20186871Y1512535D01*
X20185200Y1504852D01*
X20185200Y226915D01*
X20189675Y211676D01*
X20191065Y210471D01*
X20198748Y208800D01*
X20265654Y208800D01*
X20333775Y188798D01*
X20380268Y135142D01*
X20390372Y64868D01*
X20387627Y51482D01*
X20384696Y44407D01*
X20365474Y-101600D01*
X20380990Y-219455D01*
X20370051Y-289602D01*
X20322923Y-342701D01*
X20256068Y-361900D01*
X20040311Y-361901D01*
X19966132Y-361901D01*
X19898012Y-341899D01*
X19877037Y-324996D01*
X19577711Y-25670D01*
X19570292Y-17576D01*
X19554026Y1810D01*
X19525562Y66848D01*
X19536779Y136953D01*
X19584116Y189865D01*
X19650548Y208800D01*
X19862285Y208800D01*
X19877524Y213275D01*
X19878729Y214665D01*
X19880400Y222348D01*
X19880400Y1500285D01*
X19875925Y1515524D01*
X19874535Y1516729D01*
X19866852Y1518400D01*
X19641248Y1518400D01*
X19633803Y1517958D01*
X19620325Y1516355D01*
X19602305Y1511402D01*
X19517799Y1473867D01*
X19498951Y1460913D01*
X19435167Y1397017D01*
X19427069Y1385191D01*
X19372078Y1340285D01*
X19301539Y1332239D01*
X19253106Y1351613D01*
X19176913Y1402524D01*
X19102679Y1417290D01*
X18727673Y1417290D01*
X18352546Y1417289D01*
X18316794Y1410178D01*
X18290486Y1404946D01*
X18290484Y1404945D01*
X18278311Y1402524D01*
X18267991Y1395629D01*
X18267990Y1395628D01*
X18247614Y1382013D01*
X18179861Y1360798D01*
X18107610Y1382013D01*
X18087233Y1395629D01*
X18087230Y1395630D01*
X18076913Y1402524D01*
X18002679Y1417290D01*
X17627673Y1417290D01*
X17252546Y1417289D01*
X17216794Y1410178D01*
X17190486Y1404946D01*
X17190484Y1404945D01*
X17178311Y1402524D01*
X17167991Y1395629D01*
X17167990Y1395628D01*
X17119082Y1362948D01*
X17094128Y1346274D01*
X17037878Y1262091D01*
X17035457Y1249919D01*
X17030708Y1238454D01*
X17028628Y1239316D01*
X17003339Y1190968D01*
X16941645Y1155834D01*
X16870750Y1159632D01*
X16813163Y1201156D01*
X16789086Y1253876D01*
X16781799Y1290511D01*
X16777346Y1312901D01*
X16759049Y1340285D01*
X16727989Y1386768D01*
X16721096Y1397084D01*
X16636913Y1453334D01*
X16624741Y1455755D01*
X16613276Y1460504D01*
X16614549Y1463578D01*
X16569512Y1487142D01*
X16534386Y1548841D01*
X16531012Y1577805D01*
X16531012Y1622696D01*
X16531491Y1633678D01*
X16534022Y1662603D01*
X16534022Y1662605D01*
X16534982Y1673579D01*
X16532130Y1684222D01*
X16532130Y1684225D01*
X16524617Y1712265D01*
X16522239Y1722992D01*
X16517196Y1751591D01*
X16517193Y1751598D01*
X16515280Y1762449D01*
X16509770Y1771993D01*
X16508310Y1776003D01*
X16506492Y1779901D01*
X16503638Y1790554D01*
X16480664Y1823366D01*
X16474760Y1832632D01*
X16460243Y1857776D01*
X16460242Y1857777D01*
X16454729Y1867326D01*
X16424051Y1893068D01*
X16415947Y1900494D01*
X16106911Y2209530D01*
X16099484Y2217634D01*
X16080822Y2239875D01*
X16080821Y2239876D01*
X16073738Y2248317D01*
X16039055Y2268342D01*
X16029794Y2274242D01*
X16005996Y2290905D01*
X16005993Y2290906D01*
X15996966Y2297227D01*
X15986323Y2300079D01*
X15982441Y2301889D01*
X15978404Y2303358D01*
X15968861Y2308868D01*
X15958011Y2310781D01*
X15958009Y2310782D01*
X15937003Y2314486D01*
X15929409Y2315825D01*
X15918694Y2318200D01*
X15879991Y2328570D01*
X15869017Y2327610D01*
X15869015Y2327610D01*
X15840090Y2325079D01*
X15829108Y2324600D01*
X15484358Y2324600D01*
X15416237Y2344602D01*
X15395263Y2361505D01*
X15213905Y2542863D01*
X15179879Y2605175D01*
X15177000Y2631958D01*
X15177000Y2671908D01*
X15177479Y2682890D01*
X15180010Y2711815D01*
X15180010Y2711817D01*
X15180970Y2722791D01*
X15178118Y2733434D01*
X15178118Y2733437D01*
X15170605Y2761477D01*
X15168227Y2772204D01*
X15163184Y2800803D01*
X15163181Y2800810D01*
X15161268Y2811661D01*
X15155758Y2821205D01*
X15154298Y2825215D01*
X15152480Y2829113D01*
X15149626Y2839766D01*
X15126652Y2872578D01*
X15120748Y2881844D01*
X15106231Y2906988D01*
X15106230Y2906989D01*
X15100717Y2916538D01*
X15070039Y2942280D01*
X15061935Y2949706D01*
X14802397Y3209244D01*
X14768371Y3271556D01*
X14773436Y3342371D01*
X14791527Y3375040D01*
X14830889Y3426337D01*
X14887246Y3562393D01*
X14889804Y3581819D01*
X14905390Y3700212D01*
X14906468Y3708400D01*
X14905390Y3716588D01*
X14905390Y3724847D01*
X14906803Y3724847D01*
X14916389Y3786304D01*
X14941275Y3821692D01*
X15108078Y3988495D01*
X15170390Y4022521D01*
X15197173Y4025400D01*
X16255746Y4025400D01*
X16323867Y4005398D01*
X16370360Y3951742D01*
X16380668Y3882955D01*
X16379434Y3873583D01*
X16377674Y3860211D01*
X16378752Y3852023D01*
X16394163Y3734967D01*
X16396896Y3714204D01*
X16453253Y3578148D01*
X16542903Y3461314D01*
X16659737Y3371664D01*
X16795793Y3315307D01*
X16803977Y3314230D01*
X16803979Y3314229D01*
X16933612Y3297163D01*
X16941800Y3296085D01*
X16949988Y3297163D01*
X17079621Y3314229D01*
X17079623Y3314230D01*
X17087807Y3315307D01*
X17223863Y3371664D01*
X17340697Y3461314D01*
X17430347Y3578148D01*
X17486704Y3714204D01*
X17489438Y3734967D01*
X17504848Y3852023D01*
X17505926Y3860211D01*
X17504166Y3873583D01*
X17502932Y3882955D01*
X17513872Y3953103D01*
X17561000Y4006202D01*
X17627854Y4025400D01*
X20090211Y4025400D01*
X20158332Y4005398D01*
X20179306Y3988495D01*
X20492638Y3675163D01*
X20526664Y3612851D01*
X20528104Y3578318D01*
X20528523Y3578318D01*
X20528523Y3570059D01*
X20527445Y3561871D01*
X20528523Y3553683D01*
X20543283Y3441572D01*
X20546667Y3415864D01*
X20603024Y3279808D01*
X20692674Y3162974D01*
X20809508Y3073324D01*
X20945564Y3016967D01*
X20953748Y3015890D01*
X20953750Y3015889D01*
X21083383Y2998823D01*
X21091571Y2997745D01*
X21099759Y2998823D01*
X21229392Y3015889D01*
X21229394Y3015890D01*
X21237578Y3016967D01*
X21373634Y3073324D01*
X21490468Y3162974D01*
X21580118Y3279808D01*
X21636475Y3415864D01*
X21639860Y3441572D01*
X21654619Y3553683D01*
X21655697Y3561871D01*
X21651335Y3595002D01*
X21637553Y3699692D01*
X21637552Y3699694D01*
X21636475Y3707878D01*
X21580118Y3843934D01*
X21490468Y3960768D01*
X21373634Y4050418D01*
X21237578Y4106775D01*
X21229394Y4107852D01*
X21229392Y4107853D01*
X21099759Y4124919D01*
X21091571Y4125997D01*
X21083383Y4124919D01*
X21075124Y4124919D01*
X21075124Y4126332D01*
X21013667Y4135918D01*
X20978279Y4160804D01*
X20541953Y4597130D01*
X20534526Y4605234D01*
X20523387Y4618509D01*
X20494923Y4683550D01*
X20506140Y4753654D01*
X20553479Y4806566D01*
X20619909Y4825500D01*
X20657994Y4825500D01*
X20682565Y4823081D01*
G37*
G04 #@! TD.AperFunction*
M02*
