M48
; DRILL file {KiCad (6.0.5)} date Thu Sep 22 00:28:22 2022
; FORMAT={-:-/ absolute / metric / decimal}
; #@! TF.CreationDate,2022-09-22T00:28:22+02:00
; #@! TF.GenerationSoftware,Kicad,Pcbnew,(6.0.5)
; #@! TF.FileFunction,Plated,1,2,PTH
FMAT,2
METRIC
; #@! TA.AperFunction,Plated,PTH,ViaDrill
T1C0.305
; #@! TA.AperFunction,Plated,PTH,ComponentDrill
T2C0.600
%
G90
G05
T1
X3.538Y-1.891
X3.708Y-0.051
X3.759Y0.914
X4.978Y-1.372
X5.131Y1.448
X5.182Y0.356
X7.638Y-4.484
X7.744Y2.416
X8.738Y-0.221
X9.36Y-1.155
X10.325Y-0.19
X10.375Y1.282
X11.46Y2.429
X11.462Y-2.632
X11.836Y1.473
X11.836Y-0.102
X11.854Y-4.476
X12.794Y-0.698
X13.255Y3.105
X13.716Y-3.099
X13.989Y-3.864
X14.342Y3.708
X14.888Y-0.047
X15.333Y1.271
X15.507Y2.607
X16.942Y3.86
X17.678Y2.083
X20.79Y2.124
X20.93Y-0.102
X21.092Y3.562
X22.421Y4.094
X22.708Y2.743
X22.708Y-3.81
T2
X1.968Y4.32G85X1.368Y4.32
G05
X1.968Y-4.32G85X1.368Y-4.32
G05
X6.398Y4.32G85X5.298Y4.32
G05
X6.398Y-4.32G85X5.298Y-4.32
G05
T0
M30
