G04 #@! TF.GenerationSoftware,KiCad,Pcbnew,(6.0.5)*
G04 #@! TF.CreationDate,2022-09-22T00:28:13+02:00*
G04 #@! TF.ProjectId,OrangePill,4f72616e-6765-4506-996c-6c2e6b696361,rev?*
G04 #@! TF.SameCoordinates,PX631f320PY48ab840*
G04 #@! TF.FileFunction,Soldermask,Top*
G04 #@! TF.FilePolarity,Negative*
%FSLAX46Y46*%
G04 Gerber Fmt 4.6, Leading zero omitted, Abs format (unit mm)*
G04 Created by KiCad (PCBNEW (6.0.5)) date 2022-09-22 00:28:13*
%MOMM*%
%LPD*%
G01*
G04 APERTURE LIST*
G04 Aperture macros list*
%AMRoundRect*
0 Rectangle with rounded corners*
0 $1 Rounding radius*
0 $2 $3 $4 $5 $6 $7 $8 $9 X,Y pos of 4 corners*
0 Add a 4 corners polygon primitive as box body*
4,1,4,$2,$3,$4,$5,$6,$7,$8,$9,$2,$3,0*
0 Add four circle primitives for the rounded corners*
1,1,$1+$1,$2,$3*
1,1,$1+$1,$4,$5*
1,1,$1+$1,$6,$7*
1,1,$1+$1,$8,$9*
0 Add four rect primitives between the rounded corners*
20,1,$1+$1,$2,$3,$4,$5,0*
20,1,$1+$1,$4,$5,$6,$7,0*
20,1,$1+$1,$6,$7,$8,$9,0*
20,1,$1+$1,$8,$9,$2,$3,0*%
G04 Aperture macros list end*
%ADD10R,0.700000X0.700000*%
%ADD11RoundRect,0.200000X0.275000X-0.200000X0.275000X0.200000X-0.275000X0.200000X-0.275000X-0.200000X0*%
%ADD12C,0.650000*%
%ADD13R,1.150000X0.300000*%
%ADD14O,1.600000X1.000000*%
%ADD15O,2.100000X1.000000*%
%ADD16RoundRect,0.225000X-0.225000X-0.250000X0.225000X-0.250000X0.225000X0.250000X-0.225000X0.250000X0*%
%ADD17C,1.000000*%
%ADD18RoundRect,0.225000X0.250000X-0.225000X0.250000X0.225000X-0.250000X0.225000X-0.250000X-0.225000X0*%
%ADD19RoundRect,0.200000X-0.275000X0.200000X-0.275000X-0.200000X0.275000X-0.200000X0.275000X0.200000X0*%
%ADD20RoundRect,0.200000X-0.200000X-0.275000X0.200000X-0.275000X0.200000X0.275000X-0.200000X0.275000X0*%
%ADD21C,1.500000*%
%ADD22C,0.600000*%
%ADD23R,1.200000X0.900000*%
%ADD24R,1.300000X1.150000*%
G04 APERTURE END LIST*
D10*
X17627612Y-1017210D03*
X18727612Y-1017210D03*
X18727612Y812790D03*
X17627612Y812790D03*
D11*
X11176000Y-2755400D03*
X11176000Y-1105400D03*
D12*
X5348200Y2890000D03*
X5348200Y-2890000D03*
D13*
X6413200Y3350000D03*
X6413200Y2550000D03*
X6413200Y1250000D03*
X6413200Y250000D03*
X6413200Y-250000D03*
X6413200Y-1250000D03*
X6413200Y-2550000D03*
X6413200Y-3350000D03*
X6413200Y-3050000D03*
X6413200Y-2250000D03*
X6413200Y-1750000D03*
X6413200Y-750000D03*
X6413200Y750000D03*
X6413200Y1750000D03*
X6413200Y2250000D03*
X6413200Y3050000D03*
D14*
X1668200Y-4320000D03*
X1668200Y4320000D03*
D15*
X5848200Y4320000D03*
X5848200Y-4320000D03*
D16*
X8724600Y3149600D03*
X10274600Y3149600D03*
D10*
X15087612Y863600D03*
X16187612Y863600D03*
X16187612Y-966400D03*
X15087612Y-966400D03*
X21132800Y-966400D03*
X20032800Y-966400D03*
X20032800Y863600D03*
X21132800Y863600D03*
D17*
X12801600Y-4064000D03*
D18*
X8788400Y-2705400D03*
X8788400Y-1155400D03*
D17*
X12801600Y4013200D03*
D19*
X12446000Y-1105400D03*
X12446000Y-2755400D03*
D16*
X8775400Y762000D03*
X10325400Y762000D03*
D20*
X8725400Y1930400D03*
X10375400Y1930400D03*
D17*
X11277600Y4064000D03*
D18*
X10007600Y-2705400D03*
X10007600Y-1155400D03*
D21*
X0Y0D03*
D22*
X24079200Y-762000D03*
X24079200Y938000D03*
D23*
X24079200Y2388000D03*
X24079200Y-2212000D03*
D24*
X22529200Y1763000D03*
X22529200Y-1587000D03*
M02*
