G04 #@! TF.GenerationSoftware,KiCad,Pcbnew,(6.0.5)*
G04 #@! TF.CreationDate,2022-09-22T00:28:13+02:00*
G04 #@! TF.ProjectId,OrangePill,4f72616e-6765-4506-996c-6c2e6b696361,rev?*
G04 #@! TF.SameCoordinates,PX631f320PY48ab840*
G04 #@! TF.FileFunction,Soldermask,Bot*
G04 #@! TF.FilePolarity,Negative*
%FSLAX46Y46*%
G04 Gerber Fmt 4.6, Leading zero omitted, Abs format (unit mm)*
G04 Created by KiCad (PCBNEW (6.0.5)) date 2022-09-22 00:28:13*
%MOMM*%
%LPD*%
G01*
G04 APERTURE LIST*
G04 Aperture macros list*
%AMRoundRect*
0 Rectangle with rounded corners*
0 $1 Rounding radius*
0 $2 $3 $4 $5 $6 $7 $8 $9 X,Y pos of 4 corners*
0 Add a 4 corners polygon primitive as box body*
4,1,4,$2,$3,$4,$5,$6,$7,$8,$9,$2,$3,0*
0 Add four circle primitives for the rounded corners*
1,1,$1+$1,$2,$3*
1,1,$1+$1,$4,$5*
1,1,$1+$1,$6,$7*
1,1,$1+$1,$8,$9*
0 Add four rect primitives between the rounded corners*
20,1,$1+$1,$2,$3,$4,$5,0*
20,1,$1+$1,$4,$5,$6,$7,0*
20,1,$1+$1,$6,$7,$8,$9,0*
20,1,$1+$1,$8,$9,$2,$3,0*%
G04 Aperture macros list end*
%ADD10C,0.650000*%
%ADD11O,1.600000X1.000000*%
%ADD12O,2.100000X1.000000*%
%ADD13C,0.600000*%
%ADD14R,1.400000X1.200000*%
%ADD15RoundRect,0.225000X-0.250000X0.225000X-0.250000X-0.225000X0.250000X-0.225000X0.250000X0.225000X0*%
%ADD16R,0.300000X0.750000*%
%ADD17R,1.500000X1.300000*%
%ADD18R,0.250000X0.275000*%
%ADD19R,0.275000X0.250000*%
%ADD20RoundRect,0.225000X0.250000X-0.225000X0.250000X0.225000X-0.250000X0.225000X-0.250000X-0.225000X0*%
%ADD21RoundRect,0.200000X-0.275000X0.200000X-0.275000X-0.200000X0.275000X-0.200000X0.275000X0.200000X0*%
%ADD22RoundRect,0.250000X0.250000X0.475000X-0.250000X0.475000X-0.250000X-0.475000X0.250000X-0.475000X0*%
%ADD23R,0.200000X0.850000*%
%ADD24R,0.850000X0.200000*%
%ADD25R,4.050000X4.050000*%
%ADD26RoundRect,0.150000X0.512500X0.150000X-0.512500X0.150000X-0.512500X-0.150000X0.512500X-0.150000X0*%
G04 APERTURE END LIST*
D10*
X5348200Y2890000D03*
X5348200Y-2890000D03*
D11*
X1668200Y-4320000D03*
X1668200Y4320000D03*
D12*
X5848200Y4320000D03*
X5848200Y-4320000D03*
D13*
X24079200Y-762000D03*
X24079200Y938000D03*
D14*
X16375200Y-2096400D03*
X18575200Y-2096400D03*
X18575200Y-3796400D03*
X16375200Y-3796400D03*
D15*
X15341600Y3924600D03*
X15341600Y2374600D03*
D16*
X17945800Y201000D03*
X17445800Y201000D03*
X16945800Y201000D03*
X16445800Y201000D03*
X16445800Y3101000D03*
X16945800Y3101000D03*
X17445800Y3101000D03*
X17945800Y3101000D03*
D17*
X17195800Y1651010D03*
D18*
X20358800Y2361700D03*
X19858800Y2361700D03*
X19358800Y2361700D03*
X18858800Y2361700D03*
D19*
X18846300Y2874200D03*
X18846300Y3374200D03*
D18*
X18858800Y3886700D03*
X19358800Y3886700D03*
X19858800Y3886700D03*
X20358800Y3886700D03*
D19*
X20371300Y3374200D03*
X20371300Y2874200D03*
D20*
X20066000Y-3873800D03*
X20066000Y-2323800D03*
D21*
X19151600Y1231400D03*
X19151600Y-418600D03*
D22*
X2804200Y-2438400D03*
X904200Y-2438400D03*
D23*
X12861600Y-3551600D03*
X12461600Y-3551600D03*
X12061600Y-3551600D03*
X11661600Y-3551600D03*
X11261600Y-3551600D03*
X10861600Y-3551600D03*
X10461600Y-3551600D03*
X10061600Y-3551600D03*
X9661600Y-3551600D03*
X9261600Y-3551600D03*
X8861600Y-3551600D03*
X8461600Y-3551600D03*
X8061600Y-3551600D03*
X7661600Y-3551600D03*
D24*
X6811600Y-2701600D03*
X6811600Y-2301600D03*
X6811600Y-1901600D03*
X6811600Y-1501600D03*
X6811600Y-1101600D03*
X6811600Y-701600D03*
X6811600Y-301600D03*
X6811600Y98400D03*
X6811600Y498400D03*
X6811600Y898400D03*
X6811600Y1298400D03*
X6811600Y1698400D03*
X6811600Y2098400D03*
X6811600Y2498400D03*
D23*
X7661600Y3348400D03*
X8061600Y3348400D03*
X8461600Y3348400D03*
X8861600Y3348400D03*
X9261600Y3348400D03*
X9661600Y3348400D03*
X10061600Y3348400D03*
X10461600Y3348400D03*
X10861600Y3348400D03*
X11261600Y3348400D03*
X11661600Y3348400D03*
X12061600Y3348400D03*
X12461600Y3348400D03*
X12861600Y3348400D03*
D24*
X13711600Y2498400D03*
X13711600Y2098400D03*
X13711600Y1698400D03*
X13711600Y1298400D03*
X13711600Y898400D03*
X13711600Y498400D03*
X13711600Y98400D03*
X13711600Y-301600D03*
X13711600Y-701600D03*
X13711600Y-1101600D03*
X13711600Y-1501600D03*
X13711600Y-1901600D03*
X13711600Y-2301600D03*
X13711600Y-2701600D03*
D25*
X10261600Y-101600D03*
D22*
X2753400Y2438400D03*
X853400Y2438400D03*
D20*
X14859000Y-3975400D03*
X14859000Y-2425400D03*
D26*
X2890100Y899200D03*
X2890100Y-50800D03*
X2890100Y-1000800D03*
X615100Y-1000800D03*
X615100Y899200D03*
D21*
X20370800Y1231400D03*
X20370800Y-418600D03*
X4114800Y-2731000D03*
X4114800Y-4381000D03*
M02*
