%FSLAX45Y45*%
G04 Gerber Fmt 4.5, Leading zero omitted, Abs format (unit mm)*
G04 Created by KiCad (PCBNEW (6.0.5)) date 2022-09-22 00:28:23*
%MOMM*%
%LPD*%
G01*
G04 APERTURE LIST*
%TA.AperFunction,Profile*%
%ADD10C,0.203200*%
%TD*%
%ADD11C,0.200000*%
%ADD12C,0.030480*%
%ADD13C,0.060000*%
G04 APERTURE END LIST*
D10*
X401320Y508000D02*
G75*
G03*
X401320Y-508000I0J-508000D01*
G01*
X2516590Y238762D02*
G75*
G03*
X2069546Y508000I-447010J-236462D01*
G01*
X2516586Y238760D02*
X2516586Y-243840D01*
X401320Y-508000D02*
X2069546Y-508000D01*
X401320Y508000D02*
X2069546Y508000D01*
X2069546Y-507996D02*
G75*
G03*
X2516586Y-243840I54J510256D01*
G01*
D11*
D12*
X338513Y-173892D02*
X368993Y-204372D01*
X368993Y-173892D02*
X338513Y-204372D01*
X355600Y10160D02*
X386080Y-20320D01*
X386080Y10160D02*
X355600Y-20320D01*
X360680Y106680D02*
X391160Y76200D01*
X391160Y106680D02*
X360680Y76200D01*
X482600Y-121920D02*
X513080Y-152400D01*
X513080Y-121920D02*
X482600Y-152400D01*
X497840Y160020D02*
X528320Y129540D01*
X528320Y160020D02*
X497840Y129540D01*
X502964Y50844D02*
X533444Y20364D01*
X533444Y50844D02*
X502964Y20364D01*
X748603Y-433170D02*
X779083Y-463650D01*
X779083Y-433170D02*
X748603Y-463650D01*
X759170Y256830D02*
X789650Y226350D01*
X789650Y256830D02*
X759170Y226350D01*
X858520Y-6810D02*
X889000Y-37290D01*
X889000Y-6810D02*
X858520Y-37290D01*
X920780Y-100300D02*
X951260Y-130780D01*
X951260Y-100300D02*
X920780Y-130780D01*
X1017300Y-3780D02*
X1047780Y-34260D01*
X1047780Y-3780D02*
X1017300Y-34260D01*
X1022300Y143460D02*
X1052780Y112980D01*
X1052780Y143460D02*
X1022300Y112980D01*
X1130781Y258123D02*
X1161261Y227643D01*
X1161261Y258123D02*
X1130781Y227643D01*
X1131004Y-248008D02*
X1161484Y-278489D01*
X1161484Y-248008D02*
X1131004Y-278489D01*
X1168400Y162560D02*
X1198880Y132080D01*
X1198880Y162560D02*
X1168400Y132080D01*
X1168400Y5080D02*
X1198880Y-25400D01*
X1198880Y5080D02*
X1168400Y-25400D01*
X1170172Y-432320D02*
X1200652Y-462800D01*
X1200652Y-432320D02*
X1170172Y-462800D01*
X1264170Y-54560D02*
X1294650Y-85040D01*
X1294650Y-54560D02*
X1264170Y-85040D01*
X1310288Y325733D02*
X1340768Y295253D01*
X1340768Y325733D02*
X1310288Y295253D01*
X1356360Y-294640D02*
X1386840Y-325120D01*
X1386840Y-294640D02*
X1356360Y-325120D01*
X1383681Y-371138D02*
X1414161Y-401618D01*
X1414161Y-371138D02*
X1383681Y-401618D01*
X1418994Y386080D02*
X1449474Y355600D01*
X1449474Y386080D02*
X1418994Y355600D01*
X1473600Y10560D02*
X1504080Y-19920D01*
X1504080Y10560D02*
X1473600Y-19920D01*
X1518096Y142334D02*
X1548576Y111854D01*
X1548576Y142334D02*
X1518096Y111854D01*
X1535480Y275978D02*
X1565960Y245498D01*
X1565960Y275978D02*
X1535480Y245498D01*
X1678940Y401261D02*
X1709420Y370781D01*
X1709420Y401261D02*
X1678940Y370781D01*
X1752600Y223520D02*
X1783080Y193040D01*
X1783080Y223520D02*
X1752600Y193040D01*
X2063800Y227637D02*
X2094280Y197157D01*
X2094280Y227637D02*
X2063800Y197157D01*
X2077720Y5080D02*
X2108200Y-25400D01*
X2108200Y5080D02*
X2077720Y-25400D01*
X2093917Y371427D02*
X2124397Y340947D01*
X2124397Y371427D02*
X2093917Y340947D01*
X2226896Y424619D02*
X2257376Y394139D01*
X2257376Y424619D02*
X2226896Y394139D01*
X2255520Y289560D02*
X2286000Y259080D01*
X2286000Y289560D02*
X2255520Y259080D01*
X2255520Y-365760D02*
X2286000Y-396240D01*
X2286000Y-365760D02*
X2255520Y-396240D01*
D13*
X196820Y432000D02*
G75*
G03*
X196820Y432000I-30000J0D01*
G01*
D11*
X196820Y452000D02*
X136820Y452000D01*
X196820Y412000D02*
X136820Y412000D01*
X136820Y452000D02*
G75*
G03*
X136820Y412000I0J-20000D01*
G01*
X196820Y412000D02*
G75*
G03*
X196820Y452000I0J20000D01*
G01*
D13*
X196820Y-432000D02*
G75*
G03*
X196820Y-432000I-30000J0D01*
G01*
D11*
X196820Y-412000D02*
X136820Y-412000D01*
X196820Y-452000D02*
X136820Y-452000D01*
X136820Y-412000D02*
G75*
G03*
X136820Y-452000I0J-20000D01*
G01*
X196820Y-452000D02*
G75*
G03*
X196820Y-412000I0J20000D01*
G01*
D13*
X614820Y432000D02*
G75*
G03*
X614820Y432000I-30000J0D01*
G01*
D11*
X639820Y452000D02*
X529820Y452000D01*
X639820Y412000D02*
X529820Y412000D01*
X529820Y452000D02*
G75*
G03*
X529820Y412000I0J-20000D01*
G01*
X639820Y412000D02*
G75*
G03*
X639820Y452000I0J20000D01*
G01*
D13*
X614820Y-432000D02*
G75*
G03*
X614820Y-432000I-30000J0D01*
G01*
D11*
X639820Y-412000D02*
X529820Y-412000D01*
X639820Y-452000D02*
X529820Y-452000D01*
X529820Y-412000D02*
G75*
G03*
X529820Y-452000I0J-20000D01*
G01*
X639820Y-452000D02*
G75*
G03*
X639820Y-412000I0J20000D01*
G01*
X140779Y-828636D02*
X140779Y-628636D01*
X188398Y-628636D01*
X216969Y-638160D01*
X236017Y-657208D01*
X245541Y-676255D01*
X255065Y-714350D01*
X255065Y-742922D01*
X245541Y-781017D01*
X236017Y-800065D01*
X216969Y-819112D01*
X188398Y-828636D01*
X140779Y-828636D01*
X340779Y-828636D02*
X340779Y-695303D01*
X340779Y-733398D02*
X350303Y-714350D01*
X359827Y-704827D01*
X378874Y-695303D01*
X397922Y-695303D01*
X464588Y-828636D02*
X464588Y-695303D01*
X464588Y-628636D02*
X455065Y-638160D01*
X464588Y-647684D01*
X474112Y-638160D01*
X464588Y-628636D01*
X464588Y-647684D01*
X588398Y-828636D02*
X569350Y-819112D01*
X559827Y-800065D01*
X559827Y-628636D01*
X693160Y-828636D02*
X674112Y-819112D01*
X664589Y-800065D01*
X664589Y-628636D01*
X921731Y-828636D02*
X921731Y-628636D01*
X988398Y-771493D01*
X1055065Y-628636D01*
X1055065Y-828636D01*
X1236017Y-828636D02*
X1236017Y-723874D01*
X1226493Y-704827D01*
X1207446Y-695303D01*
X1169350Y-695303D01*
X1150303Y-704827D01*
X1236017Y-819112D02*
X1216970Y-828636D01*
X1169350Y-828636D01*
X1150303Y-819112D01*
X1140779Y-800065D01*
X1140779Y-781017D01*
X1150303Y-761969D01*
X1169350Y-752446D01*
X1216970Y-752446D01*
X1236017Y-742922D01*
X1331255Y-695303D02*
X1331255Y-895303D01*
X1331255Y-704827D02*
X1350303Y-695303D01*
X1388398Y-695303D01*
X1407446Y-704827D01*
X1416969Y-714350D01*
X1426493Y-733398D01*
X1426493Y-790541D01*
X1416969Y-809588D01*
X1407446Y-819112D01*
X1388398Y-828636D01*
X1350303Y-828636D01*
X1331255Y-819112D01*
X1512208Y-809588D02*
X1521731Y-819112D01*
X1512208Y-828636D01*
X1502684Y-819112D01*
X1512208Y-809588D01*
X1512208Y-828636D01*
X1512208Y-704827D02*
X1521731Y-714350D01*
X1512208Y-723874D01*
X1502684Y-714350D01*
X1512208Y-704827D01*
X1512208Y-723874D01*
D12*
X-147320Y-1142920D02*
X-116840Y-1173400D01*
X-116840Y-1142920D02*
X-147320Y-1173400D01*
D11*
X178874Y-1048636D02*
X197922Y-1048636D01*
X216969Y-1058160D01*
X226493Y-1067684D01*
X236017Y-1086731D01*
X245541Y-1124827D01*
X245541Y-1172446D01*
X236017Y-1210541D01*
X226493Y-1229589D01*
X216969Y-1239112D01*
X197922Y-1248636D01*
X178874Y-1248636D01*
X159827Y-1239112D01*
X150303Y-1229589D01*
X140779Y-1210541D01*
X131255Y-1172446D01*
X131255Y-1124827D01*
X140779Y-1086731D01*
X150303Y-1067684D01*
X159827Y-1058160D01*
X178874Y-1048636D01*
X331255Y-1229589D02*
X340779Y-1239112D01*
X331255Y-1248636D01*
X321731Y-1239112D01*
X331255Y-1229589D01*
X331255Y-1248636D01*
X407446Y-1048636D02*
X531255Y-1048636D01*
X464588Y-1124827D01*
X493160Y-1124827D01*
X512208Y-1134350D01*
X521731Y-1143874D01*
X531255Y-1162922D01*
X531255Y-1210541D01*
X521731Y-1229589D01*
X512208Y-1239112D01*
X493160Y-1248636D01*
X436017Y-1248636D01*
X416969Y-1239112D01*
X407446Y-1229589D01*
X655065Y-1048636D02*
X674112Y-1048636D01*
X693160Y-1058160D01*
X702684Y-1067684D01*
X712208Y-1086731D01*
X721731Y-1124827D01*
X721731Y-1172446D01*
X712208Y-1210541D01*
X702684Y-1229589D01*
X693160Y-1239112D01*
X674112Y-1248636D01*
X655065Y-1248636D01*
X636017Y-1239112D01*
X626493Y-1229589D01*
X616970Y-1210541D01*
X607446Y-1172446D01*
X607446Y-1124827D01*
X616970Y-1086731D01*
X626493Y-1067684D01*
X636017Y-1058160D01*
X655065Y-1048636D01*
X902684Y-1048636D02*
X807446Y-1048636D01*
X797922Y-1143874D01*
X807446Y-1134350D01*
X826493Y-1124827D01*
X874112Y-1124827D01*
X893160Y-1134350D01*
X902684Y-1143874D01*
X912208Y-1162922D01*
X912208Y-1210541D01*
X902684Y-1229589D01*
X893160Y-1239112D01*
X874112Y-1248636D01*
X826493Y-1248636D01*
X807446Y-1239112D01*
X797922Y-1229589D01*
X997922Y-1248636D02*
X997922Y-1115303D01*
X997922Y-1134350D02*
X1007446Y-1124827D01*
X1026493Y-1115303D01*
X1055065Y-1115303D01*
X1074112Y-1124827D01*
X1083636Y-1143874D01*
X1083636Y-1248636D01*
X1083636Y-1143874D02*
X1093160Y-1124827D01*
X1112208Y-1115303D01*
X1140779Y-1115303D01*
X1159827Y-1124827D01*
X1169350Y-1143874D01*
X1169350Y-1248636D01*
X1264589Y-1248636D02*
X1264589Y-1115303D01*
X1264589Y-1134350D02*
X1274112Y-1124827D01*
X1293160Y-1115303D01*
X1321731Y-1115303D01*
X1340779Y-1124827D01*
X1350303Y-1143874D01*
X1350303Y-1248636D01*
X1350303Y-1143874D02*
X1359827Y-1124827D01*
X1378874Y-1115303D01*
X1407446Y-1115303D01*
X1426493Y-1124827D01*
X1436017Y-1143874D01*
X1436017Y-1248636D01*
X1826493Y-1039112D02*
X1655065Y-1296255D01*
X2083636Y-1048636D02*
X2102684Y-1048636D01*
X2121731Y-1058160D01*
X2131255Y-1067684D01*
X2140779Y-1086731D01*
X2150303Y-1124827D01*
X2150303Y-1172446D01*
X2140779Y-1210541D01*
X2131255Y-1229589D01*
X2121731Y-1239112D01*
X2102684Y-1248636D01*
X2083636Y-1248636D01*
X2064588Y-1239112D01*
X2055065Y-1229589D01*
X2045541Y-1210541D01*
X2036017Y-1172446D01*
X2036017Y-1124827D01*
X2045541Y-1086731D01*
X2055065Y-1067684D01*
X2064588Y-1058160D01*
X2083636Y-1048636D01*
X2236017Y-1229589D02*
X2245541Y-1239112D01*
X2236017Y-1248636D01*
X2226493Y-1239112D01*
X2236017Y-1229589D01*
X2236017Y-1248636D01*
X2369350Y-1048636D02*
X2388398Y-1048636D01*
X2407446Y-1058160D01*
X2416970Y-1067684D01*
X2426493Y-1086731D01*
X2436017Y-1124827D01*
X2436017Y-1172446D01*
X2426493Y-1210541D01*
X2416970Y-1229589D01*
X2407446Y-1239112D01*
X2388398Y-1248636D01*
X2369350Y-1248636D01*
X2350303Y-1239112D01*
X2340779Y-1229589D01*
X2331255Y-1210541D01*
X2321731Y-1172446D01*
X2321731Y-1124827D01*
X2331255Y-1086731D01*
X2340779Y-1067684D01*
X2350303Y-1058160D01*
X2369350Y-1048636D01*
X2626493Y-1248636D02*
X2512208Y-1248636D01*
X2569350Y-1248636D02*
X2569350Y-1048636D01*
X2550303Y-1077208D01*
X2531255Y-1096255D01*
X2512208Y-1105779D01*
X2702684Y-1067684D02*
X2712208Y-1058160D01*
X2731255Y-1048636D01*
X2778874Y-1048636D01*
X2797922Y-1058160D01*
X2807446Y-1067684D01*
X2816969Y-1086731D01*
X2816969Y-1105779D01*
X2807446Y-1134350D01*
X2693160Y-1248636D01*
X2816969Y-1248636D01*
X2940779Y-1048636D02*
X2959827Y-1048636D01*
X2978874Y-1058160D01*
X2988398Y-1067684D01*
X2997922Y-1086731D01*
X3007446Y-1124827D01*
X3007446Y-1172446D01*
X2997922Y-1210541D01*
X2988398Y-1229589D01*
X2978874Y-1239112D01*
X2959827Y-1248636D01*
X2940779Y-1248636D01*
X2921731Y-1239112D01*
X2912208Y-1229589D01*
X2902684Y-1210541D01*
X2893160Y-1172446D01*
X2893160Y-1124827D01*
X2902684Y-1086731D01*
X2912208Y-1067684D01*
X2921731Y-1058160D01*
X2940779Y-1048636D01*
X3083636Y-1048636D02*
X3083636Y-1086731D01*
X3159827Y-1048636D02*
X3159827Y-1086731D01*
X3455065Y-1324827D02*
X3445541Y-1315303D01*
X3426493Y-1286731D01*
X3416969Y-1267684D01*
X3407446Y-1239112D01*
X3397922Y-1191493D01*
X3397922Y-1153398D01*
X3407446Y-1105779D01*
X3416969Y-1077208D01*
X3426493Y-1058160D01*
X3445541Y-1029588D01*
X3455065Y-1020065D01*
X3512208Y-1048636D02*
X3636017Y-1048636D01*
X3569350Y-1124827D01*
X3597922Y-1124827D01*
X3616969Y-1134350D01*
X3626493Y-1143874D01*
X3636017Y-1162922D01*
X3636017Y-1210541D01*
X3626493Y-1229589D01*
X3616969Y-1239112D01*
X3597922Y-1248636D01*
X3540779Y-1248636D01*
X3521731Y-1239112D01*
X3512208Y-1229589D01*
X3702684Y-1048636D02*
X3826493Y-1048636D01*
X3759827Y-1124827D01*
X3788398Y-1124827D01*
X3807446Y-1134350D01*
X3816969Y-1143874D01*
X3826493Y-1162922D01*
X3826493Y-1210541D01*
X3816969Y-1229589D01*
X3807446Y-1239112D01*
X3788398Y-1248636D01*
X3731255Y-1248636D01*
X3712208Y-1239112D01*
X3702684Y-1229589D01*
X4064588Y-1248636D02*
X4064588Y-1048636D01*
X4150303Y-1248636D02*
X4150303Y-1143874D01*
X4140779Y-1124827D01*
X4121731Y-1115303D01*
X4093160Y-1115303D01*
X4074112Y-1124827D01*
X4064588Y-1134350D01*
X4274112Y-1248636D02*
X4255065Y-1239112D01*
X4245541Y-1229589D01*
X4236017Y-1210541D01*
X4236017Y-1153398D01*
X4245541Y-1134350D01*
X4255065Y-1124827D01*
X4274112Y-1115303D01*
X4302684Y-1115303D01*
X4321731Y-1124827D01*
X4331255Y-1134350D01*
X4340779Y-1153398D01*
X4340779Y-1210541D01*
X4331255Y-1229589D01*
X4321731Y-1239112D01*
X4302684Y-1248636D01*
X4274112Y-1248636D01*
X4455065Y-1248636D02*
X4436017Y-1239112D01*
X4426493Y-1220065D01*
X4426493Y-1048636D01*
X4607446Y-1239112D02*
X4588398Y-1248636D01*
X4550303Y-1248636D01*
X4531255Y-1239112D01*
X4521731Y-1220065D01*
X4521731Y-1143874D01*
X4531255Y-1124827D01*
X4550303Y-1115303D01*
X4588398Y-1115303D01*
X4607446Y-1124827D01*
X4616970Y-1143874D01*
X4616970Y-1162922D01*
X4521731Y-1181970D01*
X4693160Y-1239112D02*
X4712208Y-1248636D01*
X4750303Y-1248636D01*
X4769350Y-1239112D01*
X4778874Y-1220065D01*
X4778874Y-1210541D01*
X4769350Y-1191493D01*
X4750303Y-1181970D01*
X4721731Y-1181970D01*
X4702684Y-1172446D01*
X4693160Y-1153398D01*
X4693160Y-1143874D01*
X4702684Y-1124827D01*
X4721731Y-1115303D01*
X4750303Y-1115303D01*
X4769350Y-1124827D01*
X4845541Y-1324827D02*
X4855065Y-1315303D01*
X4874112Y-1286731D01*
X4883636Y-1267684D01*
X4893160Y-1239112D01*
X4902684Y-1191493D01*
X4902684Y-1153398D01*
X4893160Y-1105779D01*
X4883636Y-1077208D01*
X4874112Y-1058160D01*
X4855065Y-1029588D01*
X4845541Y-1020065D01*
D13*
X-116840Y-1422160D02*
G75*
G03*
X-116840Y-1422160I-30000J0D01*
G01*
D11*
X178874Y-1312636D02*
X197922Y-1312636D01*
X216969Y-1322160D01*
X226493Y-1331684D01*
X236017Y-1350731D01*
X245541Y-1388827D01*
X245541Y-1436446D01*
X236017Y-1474541D01*
X226493Y-1493588D01*
X216969Y-1503112D01*
X197922Y-1512636D01*
X178874Y-1512636D01*
X159827Y-1503112D01*
X150303Y-1493588D01*
X140779Y-1474541D01*
X131255Y-1436446D01*
X131255Y-1388827D01*
X140779Y-1350731D01*
X150303Y-1331684D01*
X159827Y-1322160D01*
X178874Y-1312636D01*
X331255Y-1493588D02*
X340779Y-1503112D01*
X331255Y-1512636D01*
X321731Y-1503112D01*
X331255Y-1493588D01*
X331255Y-1512636D01*
X512208Y-1312636D02*
X474112Y-1312636D01*
X455065Y-1322160D01*
X445541Y-1331684D01*
X426493Y-1360255D01*
X416969Y-1398350D01*
X416969Y-1474541D01*
X426493Y-1493588D01*
X436017Y-1503112D01*
X455065Y-1512636D01*
X493160Y-1512636D01*
X512208Y-1503112D01*
X521731Y-1493588D01*
X531255Y-1474541D01*
X531255Y-1426922D01*
X521731Y-1407874D01*
X512208Y-1398350D01*
X493160Y-1388827D01*
X455065Y-1388827D01*
X436017Y-1398350D01*
X426493Y-1407874D01*
X416969Y-1426922D01*
X655065Y-1312636D02*
X674112Y-1312636D01*
X693160Y-1322160D01*
X702684Y-1331684D01*
X712208Y-1350731D01*
X721731Y-1388827D01*
X721731Y-1436446D01*
X712208Y-1474541D01*
X702684Y-1493588D01*
X693160Y-1503112D01*
X674112Y-1512636D01*
X655065Y-1512636D01*
X636017Y-1503112D01*
X626493Y-1493588D01*
X616970Y-1474541D01*
X607446Y-1436446D01*
X607446Y-1388827D01*
X616970Y-1350731D01*
X626493Y-1331684D01*
X636017Y-1322160D01*
X655065Y-1312636D01*
X845541Y-1312636D02*
X864588Y-1312636D01*
X883636Y-1322160D01*
X893160Y-1331684D01*
X902684Y-1350731D01*
X912208Y-1388827D01*
X912208Y-1436446D01*
X902684Y-1474541D01*
X893160Y-1493588D01*
X883636Y-1503112D01*
X864588Y-1512636D01*
X845541Y-1512636D01*
X826493Y-1503112D01*
X816969Y-1493588D01*
X807446Y-1474541D01*
X797922Y-1436446D01*
X797922Y-1388827D01*
X807446Y-1350731D01*
X816969Y-1331684D01*
X826493Y-1322160D01*
X845541Y-1312636D01*
X997922Y-1512636D02*
X997922Y-1379303D01*
X997922Y-1398350D02*
X1007446Y-1388827D01*
X1026493Y-1379303D01*
X1055065Y-1379303D01*
X1074112Y-1388827D01*
X1083636Y-1407874D01*
X1083636Y-1512636D01*
X1083636Y-1407874D02*
X1093160Y-1388827D01*
X1112208Y-1379303D01*
X1140779Y-1379303D01*
X1159827Y-1388827D01*
X1169350Y-1407874D01*
X1169350Y-1512636D01*
X1264589Y-1512636D02*
X1264589Y-1379303D01*
X1264589Y-1398350D02*
X1274112Y-1388827D01*
X1293160Y-1379303D01*
X1321731Y-1379303D01*
X1340779Y-1388827D01*
X1350303Y-1407874D01*
X1350303Y-1512636D01*
X1350303Y-1407874D02*
X1359827Y-1388827D01*
X1378874Y-1379303D01*
X1407446Y-1379303D01*
X1426493Y-1388827D01*
X1436017Y-1407874D01*
X1436017Y-1512636D01*
X1826493Y-1303112D02*
X1655065Y-1560255D01*
X2083636Y-1312636D02*
X2102684Y-1312636D01*
X2121731Y-1322160D01*
X2131255Y-1331684D01*
X2140779Y-1350731D01*
X2150303Y-1388827D01*
X2150303Y-1436446D01*
X2140779Y-1474541D01*
X2131255Y-1493588D01*
X2121731Y-1503112D01*
X2102684Y-1512636D01*
X2083636Y-1512636D01*
X2064588Y-1503112D01*
X2055065Y-1493588D01*
X2045541Y-1474541D01*
X2036017Y-1436446D01*
X2036017Y-1388827D01*
X2045541Y-1350731D01*
X2055065Y-1331684D01*
X2064588Y-1322160D01*
X2083636Y-1312636D01*
X2236017Y-1493588D02*
X2245541Y-1503112D01*
X2236017Y-1512636D01*
X2226493Y-1503112D01*
X2236017Y-1493588D01*
X2236017Y-1512636D01*
X2369350Y-1312636D02*
X2388398Y-1312636D01*
X2407446Y-1322160D01*
X2416970Y-1331684D01*
X2426493Y-1350731D01*
X2436017Y-1388827D01*
X2436017Y-1436446D01*
X2426493Y-1474541D01*
X2416970Y-1493588D01*
X2407446Y-1503112D01*
X2388398Y-1512636D01*
X2369350Y-1512636D01*
X2350303Y-1503112D01*
X2340779Y-1493588D01*
X2331255Y-1474541D01*
X2321731Y-1436446D01*
X2321731Y-1388827D01*
X2331255Y-1350731D01*
X2340779Y-1331684D01*
X2350303Y-1322160D01*
X2369350Y-1312636D01*
X2512208Y-1331684D02*
X2521731Y-1322160D01*
X2540779Y-1312636D01*
X2588398Y-1312636D01*
X2607446Y-1322160D01*
X2616970Y-1331684D01*
X2626493Y-1350731D01*
X2626493Y-1369779D01*
X2616970Y-1398350D01*
X2502684Y-1512636D01*
X2626493Y-1512636D01*
X2693160Y-1312636D02*
X2816969Y-1312636D01*
X2750303Y-1388827D01*
X2778874Y-1388827D01*
X2797922Y-1398350D01*
X2807446Y-1407874D01*
X2816969Y-1426922D01*
X2816969Y-1474541D01*
X2807446Y-1493588D01*
X2797922Y-1503112D01*
X2778874Y-1512636D01*
X2721731Y-1512636D01*
X2702684Y-1503112D01*
X2693160Y-1493588D01*
X2988398Y-1312636D02*
X2950303Y-1312636D01*
X2931255Y-1322160D01*
X2921731Y-1331684D01*
X2902684Y-1360255D01*
X2893160Y-1398350D01*
X2893160Y-1474541D01*
X2902684Y-1493588D01*
X2912208Y-1503112D01*
X2931255Y-1512636D01*
X2969350Y-1512636D01*
X2988398Y-1503112D01*
X2997922Y-1493588D01*
X3007446Y-1474541D01*
X3007446Y-1426922D01*
X2997922Y-1407874D01*
X2988398Y-1398350D01*
X2969350Y-1388827D01*
X2931255Y-1388827D01*
X2912208Y-1398350D01*
X2902684Y-1407874D01*
X2893160Y-1426922D01*
X3083636Y-1312636D02*
X3083636Y-1350731D01*
X3159827Y-1312636D02*
X3159827Y-1350731D01*
X3455065Y-1588827D02*
X3445541Y-1579303D01*
X3426493Y-1550731D01*
X3416969Y-1531684D01*
X3407446Y-1503112D01*
X3397922Y-1455493D01*
X3397922Y-1417398D01*
X3407446Y-1369779D01*
X3416969Y-1341208D01*
X3426493Y-1322160D01*
X3445541Y-1293589D01*
X3455065Y-1284065D01*
X3569350Y-1312636D02*
X3588398Y-1312636D01*
X3607446Y-1322160D01*
X3616969Y-1331684D01*
X3626493Y-1350731D01*
X3636017Y-1388827D01*
X3636017Y-1436446D01*
X3626493Y-1474541D01*
X3616969Y-1493588D01*
X3607446Y-1503112D01*
X3588398Y-1512636D01*
X3569350Y-1512636D01*
X3550303Y-1503112D01*
X3540779Y-1493588D01*
X3531255Y-1474541D01*
X3521731Y-1436446D01*
X3521731Y-1388827D01*
X3531255Y-1350731D01*
X3540779Y-1331684D01*
X3550303Y-1322160D01*
X3569350Y-1312636D01*
X3874112Y-1512636D02*
X3874112Y-1312636D01*
X3959827Y-1512636D02*
X3959827Y-1407874D01*
X3950303Y-1388827D01*
X3931255Y-1379303D01*
X3902684Y-1379303D01*
X3883636Y-1388827D01*
X3874112Y-1398350D01*
X4083636Y-1512636D02*
X4064588Y-1503112D01*
X4055065Y-1493588D01*
X4045541Y-1474541D01*
X4045541Y-1417398D01*
X4055065Y-1398350D01*
X4064588Y-1388827D01*
X4083636Y-1379303D01*
X4112208Y-1379303D01*
X4131255Y-1388827D01*
X4140779Y-1398350D01*
X4150303Y-1417398D01*
X4150303Y-1474541D01*
X4140779Y-1493588D01*
X4131255Y-1503112D01*
X4112208Y-1512636D01*
X4083636Y-1512636D01*
X4264589Y-1512636D02*
X4245541Y-1503112D01*
X4236017Y-1484065D01*
X4236017Y-1312636D01*
X4416970Y-1503112D02*
X4397922Y-1512636D01*
X4359827Y-1512636D01*
X4340779Y-1503112D01*
X4331255Y-1484065D01*
X4331255Y-1407874D01*
X4340779Y-1388827D01*
X4359827Y-1379303D01*
X4397922Y-1379303D01*
X4416970Y-1388827D01*
X4426493Y-1407874D01*
X4426493Y-1426922D01*
X4331255Y-1445969D01*
X4502684Y-1503112D02*
X4521731Y-1512636D01*
X4559827Y-1512636D01*
X4578874Y-1503112D01*
X4588398Y-1484065D01*
X4588398Y-1474541D01*
X4578874Y-1455493D01*
X4559827Y-1445969D01*
X4531255Y-1445969D01*
X4512208Y-1436446D01*
X4502684Y-1417398D01*
X4502684Y-1407874D01*
X4512208Y-1388827D01*
X4531255Y-1379303D01*
X4559827Y-1379303D01*
X4578874Y-1388827D01*
X4826493Y-1436446D02*
X4978874Y-1436446D01*
X4902684Y-1512636D02*
X4902684Y-1360255D01*
X5312208Y-1379303D02*
X5312208Y-1512636D01*
X5264589Y-1303112D02*
X5216970Y-1445969D01*
X5340779Y-1445969D01*
X5559827Y-1503112D02*
X5578874Y-1512636D01*
X5616969Y-1512636D01*
X5636017Y-1503112D01*
X5645541Y-1484065D01*
X5645541Y-1474541D01*
X5636017Y-1455493D01*
X5616969Y-1445969D01*
X5588398Y-1445969D01*
X5569350Y-1436446D01*
X5559827Y-1417398D01*
X5559827Y-1407874D01*
X5569350Y-1388827D01*
X5588398Y-1379303D01*
X5616969Y-1379303D01*
X5636017Y-1388827D01*
X5759827Y-1512636D02*
X5740779Y-1503112D01*
X5731255Y-1484065D01*
X5731255Y-1312636D01*
X5864588Y-1512636D02*
X5845541Y-1503112D01*
X5836017Y-1493588D01*
X5826493Y-1474541D01*
X5826493Y-1417398D01*
X5836017Y-1398350D01*
X5845541Y-1388827D01*
X5864588Y-1379303D01*
X5893160Y-1379303D01*
X5912208Y-1388827D01*
X5921731Y-1398350D01*
X5931255Y-1417398D01*
X5931255Y-1474541D01*
X5921731Y-1493588D01*
X5912208Y-1503112D01*
X5893160Y-1512636D01*
X5864588Y-1512636D01*
X5988398Y-1379303D02*
X6064588Y-1379303D01*
X6016969Y-1312636D02*
X6016969Y-1484065D01*
X6026493Y-1503112D01*
X6045541Y-1512636D01*
X6064588Y-1512636D01*
X6121731Y-1503112D02*
X6140779Y-1512636D01*
X6178874Y-1512636D01*
X6197922Y-1503112D01*
X6207446Y-1484065D01*
X6207446Y-1474541D01*
X6197922Y-1455493D01*
X6178874Y-1445969D01*
X6150303Y-1445969D01*
X6131255Y-1436446D01*
X6121731Y-1417398D01*
X6121731Y-1407874D01*
X6131255Y-1388827D01*
X6150303Y-1379303D01*
X6178874Y-1379303D01*
X6197922Y-1388827D01*
X6274112Y-1588827D02*
X6283636Y-1579303D01*
X6302684Y-1550731D01*
X6312208Y-1531684D01*
X6321731Y-1503112D01*
X6331255Y-1455493D01*
X6331255Y-1417398D01*
X6321731Y-1369779D01*
X6312208Y-1341208D01*
X6302684Y-1322160D01*
X6283636Y-1293589D01*
X6274112Y-1284065D01*
M02*
